<svg width="60" height="60" viewBox="0 0 70 70" fill="none" xmlns="http://www.w3.org/2000/svg">
<path d="M34.9999 39.1709C36.1949 39.1709 37.3783 38.9356 38.4823 38.4783C39.5864 38.0209 40.5896 37.3506 41.4346 36.5056C42.2796 35.6606 42.9499 34.6574 43.4072 33.5534C43.8645 32.4493 44.0999 31.266 44.0999 30.0709C44.0999 28.8759 43.8645 27.6926 43.4072 26.5885C42.9499 25.4845 42.2796 24.4813 41.4346 23.6363C40.5896 22.7913 39.5864 22.121 38.4823 21.6636C37.3783 21.2063 36.1949 20.9709 34.9999 20.9709C32.5864 20.9709 30.2718 21.9297 28.5652 23.6363C26.8586 25.3429 25.8999 27.6575 25.8999 30.0709C25.8999 32.4844 26.8586 34.799 28.5652 36.5056C30.2718 38.2122 32.5864 39.1709 34.9999 39.1709V39.1709Z" stroke="#065777" stroke-width="1.5"/>
<path d="M10.5584 24.7624C16.3042 -0.495908 53.725 -0.466741 59.4417 24.7916C62.7959 39.6083 53.5792 52.1499 45.5 59.9083C42.6769 62.6311 38.9077 64.1526 34.9855 64.1526C31.0633 64.1526 27.294 62.6311 24.4709 59.9083C16.4209 52.1499 7.20421 39.5791 10.5584 24.7624V24.7624Z" stroke="#065777" stroke-width="1.5"/>
</svg>
