<svg width="129" height="77" viewBox="0 0 129 77" fill="none" xmlns="http://www.w3.org/2000/svg">
<g clip-path="url(#clip0_2204_2175)">
<circle cx="1.5" cy="1.5" r="1.5" fill="black" fill-opacity="0.26"/>
<circle cx="8.5" cy="1.5" r="1.5" fill="black" fill-opacity="0.26"/>
<circle cx="15.5" cy="1.5" r="1.5" fill="black" fill-opacity="0.26"/>
<circle cx="22.5" cy="1.5" r="1.5" fill="black" fill-opacity="0.26"/>
<circle cx="29.5" cy="1.5" r="1.5" fill="black" fill-opacity="0.26"/>
<circle cx="36.5" cy="1.5" r="1.5" fill="black" fill-opacity="0.26"/>
<circle cx="43.5" cy="1.5" r="1.5" fill="black" fill-opacity="0.26"/>
<circle cx="50.5" cy="1.5" r="1.5" fill="black" fill-opacity="0.26"/>
<circle cx="57.5" cy="1.5" r="1.5" fill="black" fill-opacity="0.26"/>
<circle cx="64.5" cy="1.5" r="1.5" fill="black" fill-opacity="0.26"/>
<circle cx="71.5" cy="1.5" r="1.5" fill="black" fill-opacity="0.26"/>
<circle cx="78.5" cy="1.5" r="1.5" fill="black" fill-opacity="0.26"/>
<circle cx="85.5" cy="1.5" r="1.5" fill="black" fill-opacity="0.26"/>
<circle cx="92.5" cy="1.5" r="1.5" fill="black" fill-opacity="0.26"/>
<circle cx="99.5" cy="1.5" r="1.5" fill="black" fill-opacity="0.26"/>
<circle cx="106.5" cy="1.5" r="1.5" fill="black" fill-opacity="0.26"/>
<circle cx="113.5" cy="1.5" r="1.5" fill="black" fill-opacity="0.26"/>
<circle cx="120.5" cy="1.5" r="1.5" fill="black" fill-opacity="0.26"/>
<circle cx="127.5" cy="1.5" r="1.5" fill="black" fill-opacity="0.26"/>
<circle cx="1.5" cy="8.5" r="1.5" fill="black" fill-opacity="0.26"/>
<circle cx="8.5" cy="8.5" r="1.5" fill="black" fill-opacity="0.26"/>
<circle cx="15.5" cy="8.5" r="1.5" fill="black" fill-opacity="0.26"/>
<circle cx="22.5" cy="8.5" r="1.5" fill="black" fill-opacity="0.26"/>
<circle cx="29.5" cy="8.5" r="1.5" fill="black" fill-opacity="0.26"/>
<circle cx="36.5" cy="8.5" r="1.5" fill="black" fill-opacity="0.26"/>
<circle cx="43.5" cy="8.5" r="1.5" fill="black" fill-opacity="0.26"/>
<circle cx="50.5" cy="8.5" r="1.5" fill="black" fill-opacity="0.26"/>
<circle cx="57.5" cy="8.5" r="1.5" fill="black" fill-opacity="0.26"/>
<circle cx="64.5" cy="8.5" r="1.5" fill="black" fill-opacity="0.26"/>
<circle cx="71.5" cy="8.5" r="1.5" fill="black" fill-opacity="0.26"/>
<circle cx="78.5" cy="8.5" r="1.5" fill="black" fill-opacity="0.26"/>
<circle cx="85.5" cy="8.5" r="1.5" fill="black" fill-opacity="0.26"/>
<circle cx="92.5" cy="8.5" r="1.5" fill="black" fill-opacity="0.26"/>
<circle cx="99.5" cy="8.5" r="1.5" fill="black" fill-opacity="0.26"/>
<circle cx="106.5" cy="8.5" r="1.5" fill="black" fill-opacity="0.26"/>
<circle cx="113.5" cy="8.5" r="1.5" fill="black" fill-opacity="0.26"/>
<circle cx="120.5" cy="8.5" r="1.5" fill="black" fill-opacity="0.26"/>
<circle cx="127.5" cy="8.5" r="1.5" fill="black" fill-opacity="0.26"/>
<circle cx="1.5" cy="15.5" r="1.5" fill="black" fill-opacity="0.26"/>
<circle cx="8.5" cy="15.5" r="1.5" fill="black" fill-opacity="0.26"/>
<circle cx="15.5" cy="15.5" r="1.5" fill="black" fill-opacity="0.26"/>
<circle cx="22.5" cy="15.5" r="1.5" fill="black" fill-opacity="0.26"/>
<circle cx="29.5" cy="15.5" r="1.5" fill="black" fill-opacity="0.26"/>
<circle cx="36.5" cy="15.5" r="1.5" fill="black" fill-opacity="0.26"/>
<circle cx="43.5" cy="15.5" r="1.5" fill="black" fill-opacity="0.26"/>
<circle cx="50.5" cy="15.5" r="1.5" fill="black" fill-opacity="0.26"/>
<circle cx="57.5" cy="15.5" r="1.5" fill="black" fill-opacity="0.26"/>
<circle cx="64.5" cy="15.5" r="1.5" fill="black" fill-opacity="0.26"/>
<circle cx="71.5" cy="15.5" r="1.5" fill="black" fill-opacity="0.26"/>
<circle cx="78.5" cy="15.5" r="1.5" fill="black" fill-opacity="0.26"/>
<circle cx="85.5" cy="15.5" r="1.5" fill="black" fill-opacity="0.26"/>
<circle cx="92.5" cy="15.5" r="1.5" fill="black" fill-opacity="0.26"/>
<circle cx="99.5" cy="15.5" r="1.5" fill="black" fill-opacity="0.26"/>
<circle cx="106.5" cy="15.5" r="1.5" fill="black" fill-opacity="0.26"/>
<circle cx="113.5" cy="15.5" r="1.5" fill="black" fill-opacity="0.26"/>
<circle cx="120.5" cy="15.5" r="1.5" fill="black" fill-opacity="0.26"/>
<circle cx="127.5" cy="15.5" r="1.5" fill="black" fill-opacity="0.26"/>
<circle cx="1.5" cy="22.5" r="1.5" fill="black" fill-opacity="0.26"/>
<circle cx="8.5" cy="22.5" r="1.5" fill="black" fill-opacity="0.26"/>
<circle cx="15.5" cy="22.5" r="1.5" fill="black" fill-opacity="0.26"/>
<circle cx="22.5" cy="22.5" r="1.5" fill="black" fill-opacity="0.26"/>
<circle cx="29.5" cy="22.5" r="1.5" fill="black" fill-opacity="0.26"/>
<circle cx="36.5" cy="22.5" r="1.5" fill="black" fill-opacity="0.26"/>
<circle cx="43.5" cy="22.5" r="1.5" fill="black" fill-opacity="0.26"/>
<circle cx="50.5" cy="22.5" r="1.5" fill="black" fill-opacity="0.26"/>
<circle cx="57.5" cy="22.5" r="1.5" fill="black" fill-opacity="0.26"/>
<circle cx="64.5" cy="22.5" r="1.5" fill="black" fill-opacity="0.26"/>
<circle cx="71.5" cy="22.5" r="1.5" fill="black" fill-opacity="0.26"/>
<circle cx="78.5" cy="22.5" r="1.5" fill="black" fill-opacity="0.26"/>
<circle cx="85.5" cy="22.5" r="1.5" fill="black" fill-opacity="0.26"/>
<circle cx="92.5" cy="22.5" r="1.5" fill="black" fill-opacity="0.26"/>
<circle cx="99.5" cy="22.5" r="1.5" fill="black" fill-opacity="0.26"/>
<circle cx="106.5" cy="22.5" r="1.5" fill="black" fill-opacity="0.26"/>
<circle cx="113.5" cy="22.5" r="1.5" fill="black" fill-opacity="0.26"/>
<circle cx="120.5" cy="22.5" r="1.5" fill="black" fill-opacity="0.26"/>
<circle cx="127.5" cy="22.5" r="1.5" fill="black" fill-opacity="0.26"/>
<circle cx="1.5" cy="29.5" r="1.5" fill="black" fill-opacity="0.26"/>
<circle cx="8.5" cy="29.5" r="1.5" fill="black" fill-opacity="0.26"/>
<circle cx="15.5" cy="29.5" r="1.5" fill="black" fill-opacity="0.26"/>
<circle cx="22.5" cy="29.5" r="1.5" fill="black" fill-opacity="0.26"/>
<circle cx="29.5" cy="29.5" r="1.5" fill="black" fill-opacity="0.26"/>
<circle cx="36.5" cy="29.5" r="1.5" fill="black" fill-opacity="0.26"/>
<circle cx="43.5" cy="29.5" r="1.5" fill="black" fill-opacity="0.26"/>
<circle cx="50.5" cy="29.5" r="1.5" fill="black" fill-opacity="0.26"/>
<circle cx="57.5" cy="29.5" r="1.5" fill="black" fill-opacity="0.26"/>
<circle cx="64.5" cy="29.5" r="1.5" fill="black" fill-opacity="0.26"/>
<circle cx="71.5" cy="29.5" r="1.5" fill="black" fill-opacity="0.26"/>
<circle cx="78.5" cy="29.5" r="1.5" fill="black" fill-opacity="0.26"/>
<circle cx="85.5" cy="29.5" r="1.5" fill="black" fill-opacity="0.26"/>
<circle cx="92.5" cy="29.5" r="1.5" fill="black" fill-opacity="0.26"/>
<circle cx="99.5" cy="29.5" r="1.5" fill="black" fill-opacity="0.26"/>
<circle cx="106.5" cy="29.5" r="1.5" fill="black" fill-opacity="0.26"/>
<circle cx="113.5" cy="29.5" r="1.5" fill="black" fill-opacity="0.26"/>
<circle cx="120.5" cy="29.5" r="1.5" fill="black" fill-opacity="0.26"/>
<circle cx="127.5" cy="29.5" r="1.5" fill="black" fill-opacity="0.26"/>
<circle cx="1.5" cy="36.5" r="1.5" fill="black" fill-opacity="0.26"/>
<circle cx="8.5" cy="36.5" r="1.5" fill="black" fill-opacity="0.26"/>
<circle cx="15.5" cy="36.5" r="1.5" fill="black" fill-opacity="0.26"/>
<circle cx="22.5" cy="36.5" r="1.5" fill="black" fill-opacity="0.26"/>
<circle cx="29.5" cy="36.5" r="1.5" fill="black" fill-opacity="0.26"/>
<circle cx="36.5" cy="36.5" r="1.5" fill="black" fill-opacity="0.26"/>
<circle cx="43.5" cy="36.5" r="1.5" fill="black" fill-opacity="0.26"/>
<circle cx="50.5" cy="36.5" r="1.5" fill="black" fill-opacity="0.26"/>
<circle cx="57.5" cy="36.5" r="1.5" fill="black" fill-opacity="0.26"/>
<circle cx="64.5" cy="36.5" r="1.5" fill="black" fill-opacity="0.26"/>
<circle cx="71.5" cy="36.5" r="1.5" fill="black" fill-opacity="0.26"/>
<circle cx="78.5" cy="36.5" r="1.5" fill="black" fill-opacity="0.26"/>
<circle cx="85.5" cy="36.5" r="1.5" fill="black" fill-opacity="0.26"/>
<circle cx="92.5" cy="36.5" r="1.5" fill="black" fill-opacity="0.26"/>
<circle cx="99.5" cy="36.5" r="1.5" fill="black" fill-opacity="0.26"/>
<circle cx="106.5" cy="36.5" r="1.5" fill="black" fill-opacity="0.26"/>
<circle cx="113.5" cy="36.5" r="1.5" fill="black" fill-opacity="0.26"/>
<circle cx="120.5" cy="36.5" r="1.5" fill="black" fill-opacity="0.26"/>
<circle cx="127.5" cy="36.5" r="1.5" fill="black" fill-opacity="0.26"/>
<circle cx="1.5" cy="43.5" r="1.5" fill="black" fill-opacity="0.26"/>
<circle cx="8.5" cy="43.5" r="1.5" fill="black" fill-opacity="0.26"/>
<circle cx="15.5" cy="43.5" r="1.5" fill="black" fill-opacity="0.26"/>
<circle cx="22.5" cy="43.5" r="1.5" fill="black" fill-opacity="0.26"/>
<circle cx="29.5" cy="43.5" r="1.5" fill="black" fill-opacity="0.26"/>
<circle cx="36.5" cy="43.5" r="1.5" fill="black" fill-opacity="0.26"/>
<circle cx="43.5" cy="43.5" r="1.5" fill="black" fill-opacity="0.26"/>
<circle cx="50.5" cy="43.5" r="1.5" fill="black" fill-opacity="0.26"/>
<circle cx="57.5" cy="43.5" r="1.5" fill="black" fill-opacity="0.26"/>
<circle cx="64.5" cy="43.5" r="1.5" fill="black" fill-opacity="0.26"/>
<circle cx="71.5" cy="43.5" r="1.5" fill="black" fill-opacity="0.26"/>
<circle cx="78.5" cy="43.5" r="1.5" fill="black" fill-opacity="0.26"/>
<circle cx="85.5" cy="43.5" r="1.5" fill="black" fill-opacity="0.26"/>
<circle cx="92.5" cy="43.5" r="1.5" fill="black" fill-opacity="0.26"/>
<circle cx="99.5" cy="43.5" r="1.5" fill="black" fill-opacity="0.26"/>
<circle cx="106.5" cy="43.5" r="1.5" fill="black" fill-opacity="0.26"/>
<circle cx="113.5" cy="43.5" r="1.5" fill="black" fill-opacity="0.26"/>
<circle cx="120.5" cy="43.5" r="1.5" fill="black" fill-opacity="0.26"/>
<circle cx="127.5" cy="43.5" r="1.5" fill="black" fill-opacity="0.26"/>
<circle cx="1.5" cy="50.5" r="1.5" fill="black" fill-opacity="0.26"/>
<circle cx="8.5" cy="50.5" r="1.5" fill="black" fill-opacity="0.26"/>
<circle cx="15.5" cy="50.5" r="1.5" fill="black" fill-opacity="0.26"/>
<circle cx="22.5" cy="50.5" r="1.5" fill="black" fill-opacity="0.26"/>
<circle cx="29.5" cy="50.5" r="1.5" fill="black" fill-opacity="0.26"/>
<circle cx="36.5" cy="50.5" r="1.5" fill="black" fill-opacity="0.26"/>
<circle cx="43.5" cy="50.5" r="1.5" fill="black" fill-opacity="0.26"/>
<circle cx="50.5" cy="50.5" r="1.5" fill="black" fill-opacity="0.26"/>
<circle cx="57.5" cy="50.5" r="1.5" fill="black" fill-opacity="0.26"/>
<circle cx="64.5" cy="50.5" r="1.5" fill="black" fill-opacity="0.26"/>
<circle cx="71.5" cy="50.5" r="1.5" fill="black" fill-opacity="0.26"/>
<circle cx="78.5" cy="50.5" r="1.5" fill="black" fill-opacity="0.26"/>
<circle cx="85.5" cy="50.5" r="1.5" fill="black" fill-opacity="0.26"/>
<circle cx="92.5" cy="50.5" r="1.5" fill="black" fill-opacity="0.26"/>
<circle cx="99.5" cy="50.5" r="1.5" fill="black" fill-opacity="0.26"/>
<circle cx="106.5" cy="50.5" r="1.5" fill="black" fill-opacity="0.26"/>
<circle cx="113.5" cy="50.5" r="1.5" fill="black" fill-opacity="0.26"/>
<circle cx="120.5" cy="50.5" r="1.5" fill="black" fill-opacity="0.26"/>
<circle cx="127.5" cy="50.5" r="1.5" fill="black" fill-opacity="0.26"/>
<circle cx="1.5" cy="57.5" r="1.5" fill="black" fill-opacity="0.26"/>
<circle cx="8.5" cy="57.5" r="1.5" fill="black" fill-opacity="0.26"/>
<circle cx="15.5" cy="57.5" r="1.5" fill="black" fill-opacity="0.26"/>
<circle cx="22.5" cy="57.5" r="1.5" fill="black" fill-opacity="0.26"/>
<circle cx="29.5" cy="57.5" r="1.5" fill="black" fill-opacity="0.26"/>
<circle cx="36.5" cy="57.5" r="1.5" fill="black" fill-opacity="0.26"/>
<circle cx="43.5" cy="57.5" r="1.5" fill="black" fill-opacity="0.26"/>
<circle cx="50.5" cy="57.5" r="1.5" fill="black" fill-opacity="0.26"/>
<circle cx="57.5" cy="57.5" r="1.5" fill="black" fill-opacity="0.26"/>
<circle cx="64.5" cy="57.5" r="1.5" fill="black" fill-opacity="0.26"/>
<circle cx="71.5" cy="57.5" r="1.5" fill="black" fill-opacity="0.26"/>
<circle cx="78.5" cy="57.5" r="1.5" fill="black" fill-opacity="0.26"/>
<circle cx="85.5" cy="57.5" r="1.5" fill="black" fill-opacity="0.26"/>
<circle cx="92.5" cy="57.5" r="1.5" fill="black" fill-opacity="0.26"/>
<circle cx="99.5" cy="57.5" r="1.5" fill="black" fill-opacity="0.26"/>
<circle cx="106.5" cy="57.5" r="1.5" fill="black" fill-opacity="0.26"/>
<circle cx="113.5" cy="57.5" r="1.5" fill="black" fill-opacity="0.26"/>
<circle cx="120.5" cy="57.5" r="1.5" fill="black" fill-opacity="0.26"/>
<circle cx="127.5" cy="57.5" r="1.5" fill="black" fill-opacity="0.26"/>
<circle cx="1.5" cy="64.5" r="1.5" fill="black" fill-opacity="0.26"/>
<circle cx="8.5" cy="64.5" r="1.5" fill="black" fill-opacity="0.26"/>
<circle cx="15.5" cy="64.5" r="1.5" fill="black" fill-opacity="0.26"/>
<circle cx="22.5" cy="64.5" r="1.5" fill="black" fill-opacity="0.26"/>
<circle cx="29.5" cy="64.5" r="1.5" fill="black" fill-opacity="0.26"/>
<circle cx="36.5" cy="64.5" r="1.5" fill="black" fill-opacity="0.26"/>
<circle cx="43.5" cy="64.5" r="1.5" fill="black" fill-opacity="0.26"/>
<circle cx="50.5" cy="64.5" r="1.5" fill="black" fill-opacity="0.26"/>
<circle cx="57.5" cy="64.5" r="1.5" fill="black" fill-opacity="0.26"/>
<circle cx="64.5" cy="64.5" r="1.5" fill="black" fill-opacity="0.26"/>
<circle cx="71.5" cy="64.5" r="1.5" fill="black" fill-opacity="0.26"/>
<circle cx="78.5" cy="64.5" r="1.5" fill="black" fill-opacity="0.26"/>
<circle cx="85.5" cy="64.5" r="1.5" fill="black" fill-opacity="0.26"/>
<circle cx="92.5" cy="64.5" r="1.5" fill="black" fill-opacity="0.26"/>
<circle cx="99.5" cy="64.5" r="1.5" fill="black" fill-opacity="0.26"/>
<circle cx="106.5" cy="64.5" r="1.5" fill="black" fill-opacity="0.26"/>
<circle cx="113.5" cy="64.5" r="1.5" fill="black" fill-opacity="0.26"/>
<circle cx="120.5" cy="64.5" r="1.5" fill="black" fill-opacity="0.26"/>
<circle cx="127.5" cy="64.5" r="1.5" fill="black" fill-opacity="0.26"/>
<circle cx="1.5" cy="71.5" r="1.5" fill="black" fill-opacity="0.26"/>
<circle cx="8.5" cy="71.5" r="1.5" fill="black" fill-opacity="0.26"/>
<circle cx="15.5" cy="71.5" r="1.5" fill="black" fill-opacity="0.26"/>
<circle cx="22.5" cy="71.5" r="1.5" fill="black" fill-opacity="0.26"/>
<circle cx="29.5" cy="71.5" r="1.5" fill="black" fill-opacity="0.26"/>
<circle cx="36.5" cy="71.5" r="1.5" fill="black" fill-opacity="0.26"/>
<circle cx="43.5" cy="71.5" r="1.5" fill="black" fill-opacity="0.26"/>
<circle cx="50.5" cy="71.5" r="1.5" fill="black" fill-opacity="0.26"/>
<circle cx="57.5" cy="71.5" r="1.5" fill="black" fill-opacity="0.26"/>
<circle cx="64.5" cy="71.5" r="1.5" fill="black" fill-opacity="0.26"/>
<circle cx="71.5" cy="71.5" r="1.5" fill="black" fill-opacity="0.26"/>
<circle cx="78.5" cy="71.5" r="1.5" fill="black" fill-opacity="0.26"/>
<circle cx="85.5" cy="71.5" r="1.5" fill="black" fill-opacity="0.26"/>
<circle cx="92.5" cy="71.5" r="1.5" fill="black" fill-opacity="0.26"/>
<circle cx="99.5" cy="71.5" r="1.5" fill="black" fill-opacity="0.26"/>
<circle cx="106.5" cy="71.5" r="1.5" fill="black" fill-opacity="0.26"/>
<circle cx="113.5" cy="71.5" r="1.5" fill="black" fill-opacity="0.26"/>
<circle cx="120.5" cy="71.5" r="1.5" fill="black" fill-opacity="0.26"/>
<circle cx="127.5" cy="71.5" r="1.5" fill="black" fill-opacity="0.26"/>
</g>
<defs>
<clipPath id="clip0_2204_2175">
<rect width="129" height="77" fill="white"/>
</clipPath>
</defs>
</svg>
