<svg width="60" height="60" viewBox="0 0 71 70" fill="none" xmlns="http://www.w3.org/2000/svg">
<path d="M35.5 26.2499V5.83325L29.5834 11.6666M35.5 5.83325L41.4167 11.6666M5.85754 37.9166H18.9038C20.028 37.9166 21.0338 38.5291 21.5367 39.5208L24.998 46.3458C25.4878 47.3176 26.2429 48.1355 27.1784 48.7074C28.1139 49.2794 29.1926 49.5827 30.2934 49.5833H40.7363C41.837 49.5827 42.9158 49.2794 43.8513 48.7074C44.7868 48.1355 45.5419 47.3176 46.0317 46.3458L49.493 39.5208C49.7388 39.0398 50.1149 38.6353 50.5797 38.3521C51.0444 38.069 51.5796 37.9182 52.1259 37.9166H65.0242" stroke="#065777" stroke-width="1.5" stroke-linecap="round" stroke-linejoin="round"/>
<path d="M20.7083 14.9624C10.2358 16.4791 5.91663 22.5457 5.91663 34.9999V43.7499C5.91663 58.3332 11.8333 64.1666 26.625 64.1666H44.375C59.1666 64.1666 65.0833 58.3332 65.0833 43.7499V34.9999C65.0833 22.5457 60.7641 16.4791 50.2916 14.9624" stroke="#065777" stroke-width="1.5" stroke-linecap="round" stroke-linejoin="round"/>
</svg>
