<svg width="60" height="60" viewBox="0 0 70 70" fill="none" xmlns="http://www.w3.org/2000/svg">
<path d="M64.0791 53.4624C64.0791 54.5124 63.8457 55.5916 63.3499 56.6416C62.8541 57.6916 62.2124 58.6833 61.3666 59.6166C59.9374 61.1916 58.3624 62.3291 56.5832 63.0583C54.8332 63.7874 52.9374 64.1666 50.8958 64.1666C47.9208 64.1666 44.7416 63.4666 41.3874 62.0374C38.0332 60.6083 34.6791 58.6833 31.3541 56.2624C27.9652 53.7835 24.7673 51.0536 21.7874 48.0957C18.838 45.1266 16.1177 41.9383 13.6499 38.5583C11.2583 35.2333 9.33325 31.9083 7.93325 28.6124C6.53325 25.2874 5.83325 22.1083 5.83325 19.0749C5.83325 17.0916 6.18325 15.1958 6.88325 13.4458C7.58325 11.6666 8.69159 10.0333 10.2374 8.57492C12.1041 6.73742 14.1458 5.83325 16.3041 5.83325C17.1208 5.83325 17.9374 6.00825 18.6666 6.35825C19.4249 6.70825 20.0958 7.23325 20.6208 7.99159L27.3874 17.5291C27.9124 18.2583 28.2916 18.9291 28.5541 19.5708C28.8166 20.1833 28.9624 20.7958 28.9624 21.3499C28.9624 22.0499 28.7583 22.7499 28.3499 23.4208C27.9708 24.0916 27.4166 24.7916 26.7166 25.4916L24.4999 27.7957C24.1791 28.1166 24.0333 28.4958 24.0333 28.9624C24.0333 29.1958 24.0624 29.3999 24.1208 29.6333C24.2083 29.8666 24.2958 30.0416 24.3541 30.2166C24.8791 31.1791 25.7833 32.4333 27.0666 33.9499C28.3791 35.4666 29.7791 37.0124 31.2957 38.5583C32.8707 40.1041 34.3874 41.5332 35.9332 42.8457C37.4499 44.1291 38.7041 45.0041 39.6957 45.5291C39.8416 45.5874 40.0166 45.6749 40.2207 45.7624C40.4541 45.8499 40.6874 45.8791 40.9499 45.8791C41.4457 45.8791 41.8249 45.7041 42.1457 45.3833L44.3624 43.1958C45.0916 42.4666 45.7916 41.9124 46.4624 41.5624C47.1333 41.1541 47.8041 40.9499 48.5332 40.9499C49.0874 40.9499 49.6707 41.0666 50.3124 41.3291C50.9541 41.5916 51.6249 41.9708 52.3541 42.4666L62.0082 49.3207C62.7666 49.8457 63.2916 50.4582 63.6124 51.1874C63.9041 51.9166 64.0791 52.6457 64.0791 53.4624V53.4624Z" stroke="#065777" stroke-width="1.5" stroke-miterlimit="10"/>
<path d="M53.9583 26.2499C53.9583 24.4999 52.5875 21.8166 50.5458 19.6291C48.6792 17.6166 46.2 16.0416 43.75 16.0416M64.1667 26.2499C64.1667 14.9624 55.0375 5.83325 43.75 5.83325" stroke="#065777" stroke-width="1.5" stroke-linecap="round" stroke-linejoin="round"/>
</svg>
