<?xml version="1.0" encoding="UTF-8"?>
<!DOCTYPE svg PUBLIC "-//W3C//DTD SVG 1.1//EN" "http://www.w3.org/Graphics/SVG/1.1/DTD/svg11.dtd">
<svg xmlns="http://www.w3.org/2000/svg" version="1.1" width="1826px" height="1647px" style="shape-rendering:geometricPrecision; text-rendering:geometricPrecision; image-rendering:optimizeQuality; fill-rule:evenodd; clip-rule:evenodd" xmlns:xlink="http://www.w3.org/1999/xlink">
<g><path style="opacity:0.998" fill="white" d="M 802.5,-0.5 C 814.5,-0.5 826.5,-0.5 838.5,-0.5C 889.983,7.15596 928.15,33.8226 953,79.5C 981.519,146.563 970.353,206.063 919.5,258C 870.537,299.658 815.537,309.991 754.5,289C 696.712,261.804 666.379,216.137 663.5,152C 666.268,90.4221 694.602,45.0887 748.5,16C 765.724,7.53299 783.724,2.03299 802.5,-0.5 Z"/></g>
<g><path style="opacity:0.997" fill="white" d="M 1005.5,230.5 C 1038.76,228.862 1067.76,239.029 1092.5,261C 1125.99,291.812 1148.33,329.312 1159.5,373.5C 1149.52,375.214 1139.85,378.048 1130.5,382C 1109.95,391.191 1089.79,401.024 1070,411.5C 909.036,353.093 749.87,357.593 592.5,425C 550.984,443.66 512.151,466.493 476,493.5C 479.321,445.252 486.655,397.586 498,350.5C 510.208,302.96 538.041,267.793 581.5,245C 599.246,236.518 617.912,233.184 637.5,235C 647.253,250.766 659.253,264.766 673.5,277C 774.114,365.082 871.281,361.249 965,265.5C 972.833,255.667 980.667,245.833 988.5,236C 993.811,232.762 999.477,230.929 1005.5,230.5 Z"/></g>
<g><path style="opacity:0.998" fill="white" d="M 1299.5,355.5 C 1340.42,352.532 1377.42,363.032 1410.5,387C 1420.92,397.364 1429.75,408.864 1437,421.5C 1437.67,423.5 1437.67,425.5 1437,427.5C 1419.27,470.805 1411.61,515.805 1414,562.5C 1420.35,618.73 1447.51,661.563 1495.5,691C 1531.06,711.852 1569.39,724.518 1610.5,729C 1616.09,730.581 1620.59,733.748 1624,738.5C 1647.18,773.656 1652.18,811.323 1639,851.5C 1632.47,870.568 1623.8,888.568 1613,905.5C 1605,916.833 1597,928.167 1589,939.5C 1586.98,941.684 1584.82,943.684 1582.5,945.5C 1580.17,944.333 1577.83,943.167 1575.5,942C 1554.97,924.129 1533.3,907.796 1510.5,893C 1492.92,883.293 1475.42,873.46 1458,863.5C 1422.87,709.963 1342.7,586.13 1217.5,492C 1183.11,466.792 1146.44,445.125 1107.5,427C 1156.54,401.316 1207.54,380.316 1260.5,364C 1273.46,360.339 1286.46,357.506 1299.5,355.5 Z"/></g>
<g><path style="opacity:0.998" fill="white" d="M 1601.5,377.5 C 1666.54,373.595 1715.7,399.262 1749,454.5C 1772.6,501.993 1772.27,549.326 1748,596.5C 1720.81,642.372 1680.64,669.205 1627.5,677C 1564.76,682.211 1516.26,658.711 1482,606.5C 1454.37,554.946 1454.7,503.613 1483,452.5C 1510.99,409.418 1550.49,384.418 1601.5,377.5 Z"/></g>
<g><path style="opacity:0.991" fill="white" d="M 919.5,431.5 C 808.926,425.646 704.926,448.813 607.5,501C 550.752,532.739 502.252,574.239 462,625.5C 461.184,626.823 460.017,627.489 458.5,627.5C 456.83,627.249 455.33,626.582 454,625.5C 453.833,626.667 453.667,627.833 453.5,629C 453.608,630.681 454.275,631.848 455.5,632.5C 455.34,634.153 454.674,635.486 453.5,636.5C 453.631,635.761 453.464,635.094 453,634.5C 433.751,649.704 417.751,667.704 405,688.5C 399.667,697.833 394.333,707.167 389,716.5C 386.636,719.69 384.136,722.69 381.5,725.5C 406.009,659.306 444.343,602.473 496.5,555C 552.455,504.918 616.288,467.751 688,443.5C 689.03,443.164 689.53,442.497 689.5,441.5C 697.486,439.67 705.486,437.837 713.5,436C 719.5,435.667 725.5,435.333 731.5,435C 741.833,432.667 752.167,430.333 762.5,428C 806.498,426.773 850.498,426.106 894.5,426C 903.032,427.537 911.366,429.371 919.5,431.5 Z"/></g>
<g><path style="opacity:0.991" fill="white" d="M 919.5,431.5 C 925.905,432.214 932.239,433.381 938.5,435C 946.5,435.333 954.5,435.667 962.5,436C 1056.39,456.042 1141.72,494.376 1218.5,551C 1296.45,614.825 1351.45,694.658 1383.5,790.5C 1393.47,854.712 1387.63,917.712 1366,979.5C 1364.11,984.947 1361.94,990.28 1359.5,995.5C 1357.03,996.168 1354.7,996.835 1352.5,997.5C 1346.14,999.006 1339.81,1000.67 1333.5,1002.5C 1370.86,921.114 1376.7,837.448 1351,751.5C 1327.88,682.727 1289.38,624.227 1235.5,576C 1154.3,506.756 1060.3,465.756 953.5,453C 891.075,445.656 829.075,448.323 767.5,461C 761.329,462.02 755.996,463.52 751.5,465.5C 727.995,468.453 704.329,471.287 680.5,474C 682.072,478.218 683.739,482.385 685.5,486.5C 590.457,521.052 514.957,580.385 459,664.5C 454.04,672.919 449.207,681.419 444.5,690C 444.728,690.399 445.062,690.565 445.5,690.5C 440.913,693.46 435.913,695.294 430.5,696C 433.564,686.581 436.397,677.081 439,667.5C 443.054,662.943 447.554,658.943 452.5,655.5C 453.496,649.202 453.83,642.868 453.5,636.5C 454.674,635.486 455.34,634.153 455.5,632.5C 458.166,632.067 460.832,631.567 463.5,631C 461.767,629.811 460.1,628.644 458.5,627.5C 460.017,627.489 461.184,626.823 462,625.5C 502.252,574.239 550.752,532.739 607.5,501C 704.926,448.813 808.926,425.646 919.5,431.5 Z"/></g>
<g><path style="opacity:0.994" fill="white" d="M 689.5,441.5 C 689.53,442.497 689.03,443.164 688,443.5C 616.288,467.751 552.455,504.918 496.5,555C 444.343,602.473 406.009,659.306 381.5,725.5C 372.693,736.074 361.359,742.241 347.5,744C 341.493,744.501 335.493,745.001 329.5,745.5C 341.954,709.921 359.121,676.921 381,646.5C 451.667,552.033 543.501,486.867 656.5,451C 667.49,447.671 678.49,444.504 689.5,441.5 Z"/></g>
<g><path style="opacity:1" fill="white" d="M 1333.5,1002.5 C 1326.07,1005.53 1318.4,1008.2 1310.5,1010.5C 1309.7,1010.04 1309.37,1009.38 1309.5,1008.5C 1341.43,947.343 1353.26,882.343 1345,813.5C 1340.25,777.147 1329.91,742.481 1314,709.5C 1313.62,710.056 1313.12,710.389 1312.5,710.5C 1312.67,706.818 1312.5,703.152 1312,699.5C 1311.67,699.167 1311.33,698.833 1311,698.5C 1310.72,699.416 1310.22,700.082 1309.5,700.5C 1281.22,646.368 1242.55,600.868 1193.5,564C 1121.35,511.379 1040.68,479.713 951.5,469C 929.558,466.504 907.558,465.004 885.5,464.5C 881.982,461.14 878.982,457.307 876.5,453C 875.333,452.833 874.167,452.667 873,452.5C 832.528,457.164 792.028,461.497 751.5,465.5C 755.996,463.52 761.329,462.02 767.5,461C 829.075,448.323 891.075,445.656 953.5,453C 1060.3,465.756 1154.3,506.756 1235.5,576C 1289.38,624.227 1327.88,682.727 1351,751.5C 1376.7,837.448 1370.86,921.114 1333.5,1002.5 Z"/></g>
<g><path style="opacity:0.993" fill="white" d="M 885.5,464.5 C 907.558,465.004 929.558,466.504 951.5,469C 1040.68,479.713 1121.35,511.379 1193.5,564C 1242.55,600.868 1281.22,646.368 1309.5,700.5C 1308.48,702.101 1306.98,703.101 1305,703.5C 1301.33,702.498 1298.33,700.498 1296,697.5C 1280.28,678.12 1264.95,658.453 1250,638.5C 1249.79,644.581 1249.29,650.581 1248.5,656.5C 1213.23,611.881 1170.56,576.214 1120.5,549.5C 1100.75,533.921 1081.41,517.754 1062.5,501C 1034.16,486.749 1004.16,479.082 972.5,478C 975.187,484.543 978.021,491.043 981,497.5C 981.483,496.552 981.649,495.552 981.5,494.5C 985.033,495.029 987.367,497.029 988.5,500.5C 963.398,495.529 938.064,492.195 912.5,490.5C 910.667,490.585 909.334,491.252 908.5,492.5C 900.084,483.754 892.418,474.421 885.5,464.5 Z"/></g>
<g><path style="opacity:0.999" fill="white" d="M 685.5,486.5 C 688.054,490.941 690.054,495.608 691.5,500.5C 612.833,530.686 547.333,578.686 495,644.5C 489.525,651.462 484.692,658.796 480.5,666.5C 478.04,666.699 475.707,667.365 473.5,668.5C 467.157,679.668 457.824,687.001 445.5,690.5C 445.062,690.565 444.728,690.399 444.5,690C 449.207,681.419 454.04,672.919 459,664.5C 514.957,580.385 590.457,521.052 685.5,486.5 Z"/></g>
<g><path style="opacity:0.986" fill="white" d="M 802.5,495.5 C 791.027,499.072 780.36,504.572 770.5,512C 758.982,523.725 755.315,537.558 759.5,553.5C 754.473,550.655 749.806,547.321 745.5,543.5C 749.935,521.923 760.435,504.256 777,490.5C 785.658,491.581 794.158,493.247 802.5,495.5 Z"/></g>
<g><path style="opacity:0.996" fill="white" d="M 691.5,500.5 C 693.833,504.513 695.666,508.846 697,513.5C 698.699,514.406 700.533,514.739 702.5,514.5C 702.423,515.75 701.756,516.583 700.5,517C 637.342,541.186 582.509,577.686 536,626.5C 530.882,631.773 526.382,637.439 522.5,643.5C 519.402,645.892 516.069,648.058 512.5,650C 507.437,650.248 502.437,650.915 497.5,652C 496.862,656.738 495.862,661.405 494.5,666C 489.845,666.499 485.179,666.666 480.5,666.5C 484.692,658.796 489.525,651.462 495,644.5C 547.333,578.686 612.833,530.686 691.5,500.5 Z"/></g>
<g><path style="opacity:0.995" fill="white" d="M 802.5,495.5 C 823.673,499.922 843.006,508.422 860.5,521C 865.079,525.074 869.079,529.574 872.5,534.5C 873.561,544.813 871.061,554.147 865,562.5C 862.002,564.333 859.502,566.666 857.5,569.5C 845.288,571.675 832.955,573.675 820.5,575.5C 818.833,575.5 817.167,575.5 815.5,575.5C 808.915,576.99 802.249,577.823 795.5,578C 783.322,569.97 771.322,561.804 759.5,553.5C 755.315,537.558 758.982,523.725 770.5,512C 780.36,504.572 791.027,499.072 802.5,495.5 Z"/></g>
<g><path style="opacity:1" fill="white" d="M 807.5,506.5 C 826.631,504.367 842.131,510.7 854,525.5C 861.758,543.227 857.258,557.06 840.5,567C 822.672,575.865 805.005,575.532 787.5,566C 767.039,549.74 766.373,532.74 785.5,515C 792.461,510.852 799.795,508.019 807.5,506.5 Z"/></g>
<g><path style="opacity:0.987" fill="white" d="M 522.5,643.5 C 526.382,637.439 530.882,631.773 536,626.5C 582.509,577.686 637.342,541.186 700.5,517C 701.756,516.583 702.423,515.75 702.5,514.5C 711.473,513.451 720.473,513.284 729.5,514C 729.833,514.333 730.167,514.667 730.5,515C 722.509,523.374 722.509,531.708 730.5,540C 730.167,540.333 729.833,540.667 729.5,541C 717.642,538.372 705.642,536.372 693.5,535C 673.367,550.569 652.367,564.903 630.5,578C 615.808,586.349 600.141,591.849 583.5,594.5C 583.803,599.43 583.469,604.263 582.5,609C 576.186,609.847 569.853,610.513 563.5,611C 552.035,624.718 538.368,635.551 522.5,643.5 Z"/></g>
<g><path style="opacity:1" fill="white" d="M 806.5,510.5 C 819.581,508.937 831.581,511.771 842.5,519C 855.054,530.207 856.554,542.707 847,556.5C 834.271,568.051 819.437,571.885 802.5,568C 784.878,563.718 776.378,552.551 777,534.5C 778.856,527.641 782.689,522.141 788.5,518C 794.27,514.605 800.27,512.105 806.5,510.5 Z"/></g>
<g><path style="opacity:0.995" fill="white" d="M 988.5,500.5 C 989.608,502.781 990.942,504.948 992.5,507C 995.956,507.18 999.289,507.847 1002.5,509C 1004.8,513.671 1004.97,518.504 1003,523.5C 998.558,545.085 986.392,551.251 966.5,542C 955.67,536.168 945.67,529.168 936.5,521C 926.964,511.632 917.631,502.132 908.5,492.5C 909.334,491.252 910.667,490.585 912.5,490.5C 938.064,492.195 963.398,495.529 988.5,500.5 Z"/></g>
<g><path style="opacity:1" fill="white" d="M 807.5,518.5 C 819.686,516.833 830.186,520.166 839,528.5C 845.854,541.168 843.02,551.001 830.5,558C 815.856,564.19 802.689,562.023 791,551.5C 784.383,541.109 785.883,531.942 795.5,524C 799.481,521.838 803.481,520.005 807.5,518.5 Z"/></g>
<g><path style="opacity:1" fill="white" d="M 808.5,521.5 C 819.293,519.817 828.46,522.817 836,530.5C 841.72,543.245 837.887,552.078 824.5,557C 812.776,560.36 802.61,557.86 794,549.5C 788.444,540.339 789.944,532.506 798.5,526C 801.815,524.17 805.149,522.67 808.5,521.5 Z"/></g>
<g><path style="opacity:1" fill="white" d="M 807.5,527.5 C 812.844,527.334 818.177,527.501 823.5,528C 834.935,537.618 833.935,545.618 820.5,552C 811.701,553.686 804.534,551.186 799,544.5C 796.829,536.116 799.662,530.449 807.5,527.5 Z"/></g>
<g><path style="opacity:1" fill="white" d="M 810.5,531.5 C 816.786,530.179 821.953,531.846 826,536.5C 826.927,540.449 826.094,543.949 823.5,547C 816.152,549.857 809.652,548.69 804,543.5C 802.54,537.297 804.706,533.297 810.5,531.5 Z"/></g>
<g><path style="opacity:1" fill="white" d="M 812.5,5white816.603,533.769 820.103,534.769 823,537.5C 824.273,543.898 821.606,546.898 815,546.5C 808.977,545.808 806.977,542.474 809,536.5C 810.302,535.915 811.469,535.249 812.5,534.5 Z"/></g>
<g><path style="opacity:0.984" fill="white" d="M 1120.5,549.5 C 1170.56,576.214 1213.23,611.881 1248.5,656.5C 1248.5,666.5 1248.5,676.5 1248.5,686.5C 1238.5,683.5 1228.5,680.5 1218.5,677.5C 1216.26,661.11 1212.42,645.11 1207,629.5C 1204.33,625.5 1201.67,621.5 1199,617.5C 1172.94,594.595 1146.77,571.928 1120.5,549.5 Z"/></g>
<g><path style="opacity:0.968" fill="white" d="M 872.5,534.5 C 875.081,537.32 876.914,540.654 878,544.5C 879.002,552.203 880.169,559.869 881.5,567.5C 873.492,568.073 865.492,568.739 857.5,569.5C 859.502,566.666 862.002,564.333 865,562.5C 871.061,554.147 873.561,544.813 872.5,534.5 Z"/></g>
<g><path style="opacity:0.936" fill="white" d="M 815.5,575.5 C 817.167,575.5 818.833,575.5 820.5,575.5C 826.959,578.229 833.292,581.229 839.5,584.5C 835.039,586.36 830.372,587.527 825.5,588C 821.99,590.182 818.49,592.349 815,594.5C 814.5,594.333 814,594.167 813.5,594C 816.713,588.17 817.379,582.004 815.5,575.5 Z"/></g>
<g><path style="opacity:0.996" fill="white" d="M 664.5,719.5 C 640.614,703.391 614.948,690.724 587.5,681.5C 602.22,668.202 619.553,661.702 639.5,662C 654.762,664.466 668.428,670.466 680.5,680C 684.529,683.034 688.196,686.367 691.5,690C 683.016,700.317 674.016,710.151 664.5,719.5 Z"/></g>
<g><path style="opacity:0.993" fill="white" d="M 587.5,681.5 C 614.948,690.724 640.614,703.391 664.5,719.5C 656.467,728.534 647.8,736.867 638.5,744.5C 638.67,743.178 638.337,742.011 637.5,741C 612.184,725.063 585.184,712.896 556.5,704.5C 566.546,696.455 576.879,688.788 587.5,681.5 Z"/></g>
<g><path style="opacity:0.997" fill="white" d="M 1259.5,698.5 C 1307.49,782.073 1315.66,869.406 1284,960.5C 1283.5,962.544 1282.34,963.878 1280.5,964.5C 1275.47,959.805 1270.47,955.139 1265.5,950.5C 1294.04,863.171 1284.71,780.171 1237.5,701.5C 1236.31,700.571 1234.98,700.238 1233.5,700.5C 1233.92,699.778 1234.58,699.278 1235.5,699C 1243.49,698.5 1251.49,698.334 1259.5,698.5 Z"/></g>
<g><path style="opacity:0.998" fill="white" d="M 1259.5,698.5 C 1263.5,698.5 1267.5,698.5 1271.5,698.5C 1272.95,699.302 1274.62,699.802 1276.5,700C 1324.41,787.92 1330.58,878.753 1295,972.5C 1294.3,974.584 1293.14,976.251 1291.5,977.5C 1287.61,973.392 1283.94,969.059 1280.5,964.5C 1282.34,963.878 1283.5,962.544 1284,960.5C 1315.66,869.406 1307.49,782.073 1259.5,698.5 Z"/></g>
<g><path style="opacity:0.999" fill="white" d="M 1233.5,700.5 C 1234.98,700.238 1236.31,700.571 1237.5,701.5C 1284.71,780.171 1294.04,863.171 1265.5,950.5C 1259.62,946.733 1253.95,942.733 1248.5,938.5C 1273.52,858.629 1264.52,782.629 1221.5,710.5C 1221.04,709.702 1220.38,709.369 1219.5,709.5C 1223.79,706.015 1228.46,703.015 1233.5,700.5 Z"/></g>
<g><path style="opacity:0.998" fill="white" d="M 1219.5,709.5 C 1220.38,709.369 1221.04,709.702 1221.5,710.5C 1264.52,782.629 1273.52,858.629 1248.5,938.5C 1241.16,934.496 1233.83,930.496 1226.5,926.5C 1246.36,854.855 1237.69,786.855 1200.5,722.5C 1206.3,717.428 1212.64,713.095 1219.5,709.5 Z"/></g>
<g><path style="opacity:0.998" fill="white" d="M 1271.5,698.5 C 1276.21,698.173 1280.88,698.507 1285.5,699.5C 1288.91,707.319 1292.58,714.986 1296.5,722.5C 1302.3,720.829 1307.8,721.496 1313,724.5C 1313.72,719.78 1313.55,715.114 1312.5,710.5C 1313.12,710.389 1313.62,710.056 1314,709.5C 1329.91,742.481 1340.25,777.147 1345,813.5C 1353.26,882.343 1341.43,947.343 1309.5,1008.5C 1304.29,997.743 1298.29,987.41 1291.5,977.5C 1293.14,976.251 1294.3,974.584 1295,972.5C 1330.58,878.753 1324.41,787.92 1276.5,700C 1274.62,699.802 1272.95,699.302 1271.5,698.5 Z"/></g>
<g><path style="opacity:0.995" fill="white" d="M 556.5,704.5 C 585.184,712.896 612.184,725.063 637.5,741C 638.337,742.011 638.67,743.178 638.5,744.5C 630.467,753.534 621.8,761.867 612.5,769.5C 612.631,768.624 612.298,767.957 611.5,767.5C 582.166,749.943 550.833,737.276 517.5,729.5C 530.322,720.92 543.322,712.587 556.5,704.5 Z"/></g>
<g><path style="opacity:0.998" fill="white" d="M 1200.5,722.5 C 1237.69,786.855 1246.36,854.855 1226.5,926.5C 1215.69,921.929 1205.36,916.595 1195.5,910.5C 1195.08,909.735 1194.74,908.902 1194.5,908C 1208.24,847.989 1199.57,791.489 1168.5,738.5C 1172.69,736.936 1177.02,735.436 1181.5,734C 1188,730.311 1194.33,726.478 1200.5,722.5 Z"/></g>
<g><path style="opacity:0.994" fill="white" d="M 517.5,729.5 C 550.833,737.276 582.166,749.943 611.5,767.5C 612.298,767.957 612.631,768.624 612.5,769.5C 606.193,775.472 599.86,781.472 593.5,787.5C 559.931,768.308 523.931,755.641 485.5,749.5C 495.822,742.336 506.489,735.669 517.5,729.5 Z"/></g>
<g><path style="opacity:0.998" fill="white" d="M 1168.5,738.5 C 1199.57,791.489 1208.24,847.989 1194.5,908C 1194.74,908.902 1195.08,909.735 1195.5,910.5C 1186.31,906.411 1177.98,901.078 1170.5,894.5C 1179.67,851.215 1175.17,809.215 1157,768.5C 1152.73,759.623 1148.23,750.956 1143.5,742.5C 1151.62,740.647 1159.95,739.314 1168.5,738.5 Z"/></g>
<g><path style="opacity:0.98" fill="white" d="M 1143.5,742.5 C 1148.23,750.956 1152.73,759.623 1157,768.5C 1175.17,809.215 1179.67,851.215 1170.5,894.5C 1152.75,880.356 1141.58,862.023 1137,839.5C 1133.4,820.296 1130.73,800.962 1129,781.5C 1122.1,770.031 1114.93,758.697 1107.5,747.5C 1119.33,744.854 1131.33,743.187 1143.5,742.5 Z"/></g>
<g><path style="opacity:0.996" fill="white" d="M 485.5,749.5 C 523.931,755.641 559.931,768.308 593.5,787.5C 585.16,795.84 576.493,803.84 567.5,811.5C 528.736,790.056 487.069,778.723 442.5,777.5C 456.313,767.423 470.647,758.09 485.5,749.5 Z"/></g>
<g><path style="opacity:0.998" fill="white" d="M 442.5,777.5 C 487.069,778.723 528.736,790.056 567.5,811.5C 561.132,818.869 554.132,825.536 546.5,831.5C 546.631,830.624 546.298,829.957 545.5,829.5C 500.406,808.097 453.073,799.43 403.5,803.5C 415.976,794.092 428.976,785.425 442.5,777.5 Z"/></g>
<g><path style="opacity:0.998" fill="white" d="M 98.5,805.5 C 99.7387,806.212 100.239,807.212 100,808.5C 79.3259,835.021 62.1592,863.687 48.5,894.5C 29.095,882.386 14.2617,866.052 4,845.5C 2.35832,840.746 0.858315,836.079 -0.5,831.5C -0.5,823.833 -0.5,816.167 -0.5,808.5C 0.428675,805.325 1.26201,801.991 2,798.5C 2.75044,797.874 3.58377,797.374 4.5,797C 24.131,792.662 43.7976,792.662 63.5,797C 75.3755,799.14 87.0422,801.973 98.5,805.5 Z"/></g>
<g><path style="opacity:0.996" fill="white" d="M 98.5,805.5 C 111.445,808.928 124.112,812.928 136.5,817.5C 111.07,846.329 91.7369,878.995 78.5,915.5C 67.9236,909.246 57.9236,902.246 48.5,894.5C 62.1592,863.687 79.3259,835.021 100,808.5C 100.239,807.212 99.7387,806.212 98.5,805.5 Z"/></g>
<g><path style="opacity:0.991" fill="white" d="M 1383.5,790.5 C 1395.31,825.734 1403.98,861.734 1409.5,898.5C 1404.58,933.847 1395.41,968.18 1382,1001.5C 1381.5,1003.54 1380.34,1004.88 1378.5,1005.5C 1371.37,998.237 1362.7,995.571 1352.5,997.5C 1354.7,996.835 1357.03,996.168 1359.5,995.5C 1361.94,990.28 1364.11,984.947 1366,979.5C 1387.63,917.712 1393.47,854.712 1383.5,790.5 Z"/></g>
<g><path style="opacity:0.995" fill="white" d="M 546.5,831.5 C 538.833,839.833 530.833,847.833 522.5,855.5C 499.902,844.478 475.902,837.978 450.5,836C 374.65,830.861 311.816,856.694 262,913.5C 233.696,949.137 219.863,989.803 220.5,1035.5C 217.025,1026.27 212.858,1017.27 208,1008.5C 201.904,1001.9 195.404,995.898 188.5,990.5C 199.918,939.609 225.251,897.109 264.5,863C 266.734,861.25 269.068,859.75 271.5,858.5C 289.749,862.177 307.416,860.344 324.5,853C 334.421,848.068 344.087,842.735 353.5,837C 370.048,825.612 386.715,814.445 403.5,803.5C 453.073,799.43 500.406,808.097 545.5,829.5C 546.298,829.957 546.631,830.624 546.5,831.5 Z"/></g>
<g><path style="opacity:0.998" fill="white" d="M 136.5,817.5 C 149.528,821.064 162.194,825.397 174.5,830.5C 145.603,860.907 124.27,896.241 110.5,936.5C 99.7967,929.487 89.13,922.487 78.5,915.5C 91.7369,878.995 111.07,846.329 136.5,817.5 Z"/></g>
<g><path style="opacity:0.996" fill="white" d="M 174.5,830.5 C 183.052,832.796 191.385,835.463 199.5,838.5C 199.918,839.222 200.584,839.722 201.5,840C 170.156,871.884 148.156,909.384 135.5,952.5C 127.167,947.167 118.833,941.833 110.5,936.5C 124.27,896.241 145.603,860.907 174.5,830.5 Z"/></g>
<g><path style="opacity:0.998" fill="white" d="M 522.5,855.5 C 518.5,860.167 514.167,864.5 509.5,868.5C 491.247,859.934 471.914,854.767 451.5,853C 378.056,847.494 318.223,872.994 272,929.5C 235.513,981.879 228.846,1037.88 252,1097.5C 273.909,1144.08 308.742,1176.91 356.5,1196C 358.193,1196.48 359.527,1195.98 360.5,1194.5C 359.823,1201.25 358.823,1207.92 357.5,1214.5C 302.591,1195.23 262.257,1159.56 236.5,1107.5C 232.335,1083.35 227.002,1059.35 220.5,1035.5C 219.863,989.803 233.696,949.137 262,913.5C 311.816,856.694 374.65,830.861 450.5,836C 475.902,837.978 499.902,844.478 522.5,855.5 Z"/></g>
<g><path style="opacity:0.996" fill="white" d="M 199.5,838.5 C 213.107,841.928 226.441,845.928 239.5,850.5C 202.353,883.416 177.353,924.082 164.5,972.5C 154.81,965.801 145.144,959.134 135.5,952.5C 148.156,909.384 170.156,871.884 201.5,840C 200.584,839.722 199.918,839.222 199.5,838.5 Z"/></g>
<g><path style="opacity:0.996" fill="white" d="M 239.5,850.5 C 250.347,852.878 261.014,855.545 271.5,858.5C 269.068,859.75 266.734,861.25 264.5,863C 225.251,897.109 199.918,939.609 188.5,990.5C 180.193,984.853 172.193,978.853 164.5,972.5C 177.353,924.082 202.353,883.416 239.5,850.5 Z"/></g>
<g><path style="opacity:1" fill="white" d="M 509.5,868.5 C 505.833,872.833 501.833,876.833 497.5,880.5C 493.588,878.018 489.255,876.185 484.5,875C 419.151,857.676 360.485,870.343 308.5,913C 255.091,965.039 241.924,1025.87 269,1095.5C 288.553,1136.22 319.386,1164.56 361.5,1180.5C 361.563,1185.2 361.229,1189.87 360.5,1194.5C 359.527,1195.98 358.193,1196.48 356.5,1196C 308.742,1176.91 273.909,1144.08 252,1097.5C 228.846,1037.88 235.513,981.879 272,929.5C 318.223,872.994 378.056,847.494 451.5,853C 471.914,854.767 491.247,859.934 509.5,868.5 Z"/></g>
<g><path style="opacity:0.999" fill="white" d="M 497.5,880.5 C 493.805,884.526 490.138,888.526 486.5,892.5C 427.188,873.328 372.855,882.828 323.5,921C 275.411,964.515 260.911,1017.35 280,1079.5C 296.202,1118.87 323.702,1147.2 362.5,1164.5C 362.733,1169.89 362.4,1175.23 361.5,1180.5C 319.386,1164.56 288.553,1136.22 269,1095.5C 241.924,1025.87 255.091,965.039 308.5,913C 360.485,870.343 419.151,857.676 484.5,875C 489.255,876.185 493.588,878.018 497.5,880.5 Z"/></g>
<g><path style="opacity:0.999" fill="white" d="M 486.5,892.5 C 481.491,897.875 476.491,903.208 471.5,908.5C 421.652,895.435 376.652,904.935 336.5,937C 295.481,975.241 283.648,1021.07 301,1074.5C 313.366,1105.03 334.2,1127.7 363.5,1142.5C 363.582,1149.86 363.248,1157.19 362.5,1164.5C 323.702,1147.2 296.202,1118.87 280,1079.5C 260.911,1017.35 275.411,964.515 323.5,921C 372.855,882.828 427.188,873.328 486.5,892.5 Z"/></g>
<g><path style="opacity:0.997" fill="white" d="M 1409.5,898.5 C 1425.6,998.675 1420.1,1097.67 1393,1195.5C 1381.8,1236.24 1363.46,1273.24 1338,1306.5C 1324.95,1322.27 1308.79,1333.43 1289.5,1340C 1280.89,1341.51 1272.22,1341.84 1263.5,1341C 1252.48,1319.27 1244.65,1296.44 1240,1272.5C 1237.64,1257.67 1239.97,1243.67 1247,1230.5C 1253.33,1221.5 1259.67,1212.5 1266,1203.5C 1268.31,1199.05 1270.48,1194.55 1272.5,1190C 1265.64,1184.64 1258.98,1179.14 1252.5,1173.5C 1271.44,1157.56 1289.11,1140.23 1305.5,1121.5C 1317.13,1123.13 1328.46,1125.96 1339.5,1130C 1340.68,1151.76 1335.52,1171.93 1324,1190.5C 1318.67,1195.17 1313.33,1199.83 1308,1204.5C 1304.21,1210.81 1302.71,1217.64 1303.5,1225C 1303.8,1233.2 1304.46,1241.37 1305.5,1249.5C 1317.12,1249.37 1325.96,1244.37 1332,1234.5C 1337.97,1223.58 1342.97,1212.25 1347,1200.5C 1359.16,1165.69 1369.49,1130.36 1378,1094.5C 1383.92,1071.51 1386.26,1048.18 1385,1024.5C 1384.12,1017.7 1381.96,1011.37 1378.5,1005.5C 1380.34,1004.88 1381.5,1003.54 1382,1001.5C 1395.41,968.18 1404.58,933.847 1409.5,898.5 Z"/></g>
<g><path style="opacity:0.999" fill="white" d="M 471.5,908.5 C 469.206,912.127 466.54,915.461 463.5,918.5C 420.271,909.176 381.271,918.01 346.5,945C 303.546,985.886 295.046,1033.05 321,1086.5C 331.667,1103.83 345.667,1117.83 363,1128.5C 363.232,1127.26 363.732,1126.26 364.5,1125.5C 364.093,1131.16 363.76,1136.83 363.5,1142.5C 334.2,1127.7 313.366,1105.03 301,1074.5C 283.648,1021.07 295.481,975.241 336.5,937C 376.652,904.935 421.652,895.435 471.5,908.5 Z"/></g>
<g><path style="opacity:0.998" fill="white" d="M 1317.5,1405.5 C 1319.72,1404.8 1321.55,1403.46 1323,1401.5C 1327.67,1395.34 1332.5,1389.34 1337.5,1383.5C 1340.34,1380.49 1342.67,1377.15 1344.5,1373.5C 1346.98,1371.2 1348.98,1368.53 1350.5,1365.5C 1351.91,1365.03 1352.57,1364.03 1352.5,1362.5C 1441.89,1237.32 1481.06,1097.65 1470,943.5C 1468.94,930.614 1467.44,917.78 1465.5,905C 1465.83,904.167 1466.17,903.333 1466.5,902.5C 1537.77,943.574 1602.6,993.241 1661,1051.5C 1681.39,1080.8 1692.56,1113.3 1694.5,1149C 1694.53,1167.83 1690.37,1185.67 1682,1202.5C 1678.31,1208.53 1673.14,1212.7 1666.5,1215C 1615.84,1221.21 1570.51,1239.87 1530.5,1271C 1491.28,1306.11 1471.95,1350.11 1472.5,1403C 1472.45,1420.37 1474.29,1437.53 1478,1454.5C 1484.13,1477.39 1490.96,1500.05 1498.5,1522.5C 1491.11,1544.39 1478.11,1562.23 1459.5,1576C 1430.22,1596.66 1397.55,1606.16 1361.5,1604.5C 1339.63,1604.54 1317.97,1602.54 1296.5,1598.5C 1299.17,1569.82 1302,1541.16 1305,1512.5C 1306.32,1483.04 1305.16,1453.7 1301.5,1424.5C 1306.86,1418.15 1312.19,1411.81 1317.5,1405.5 Z"/></g>
<g><path style="opacity:0.999" fill="white" d="M 463.5,918.5 C 459.853,924.14 455.853,929.473 451.5,934.5C 410.654,928.724 376.154,940.724 348,970.5C 319.306,1008.8 318.306,1047.8 345,1087.5C 351.373,1095.37 358.539,1102.37 366.5,1108.5C 365.588,1114.13 364.921,1119.8 364.5,1125.5C 363.732,1126.26 363.232,1127.26 363,1128.5C 345.667,1117.83 331.667,1103.83 321,1086.5C 295.046,1033.05 303.546,985.886 346.5,945C 381.271,918.01 420.271,909.176 463.5,918.5 Z"/></g>
<g><path style="opacity:0.999" fill="white" d="M 451.5,934.5 C 449.293,938.251 447.626,942.251 446.5,946.5C 445.596,945.791 445.263,944.791 445.5,943.5C 400.374,938.646 366.54,955.646 344,994.5C 331.529,1022.71 333.196,1050.04 349,1076.5C 355.328,1084.66 362.161,1092.33 369.5,1099.5C 368.304,1102.42 367.304,1105.42 366.5,1108.5C 358.539,1102.37 351.373,1095.37 345,1087.5C 318.306,1047.8 319.306,1008.8 348,970.5C 376.154,940.724 410.654,928.724 451.5,934.5 Z"/></g>
<g><path style="opacity:0.997" fill="white" d="M 446.5,946.5 C 448.858,948.529 451.192,950.529 453.5,952.5C 413.136,944.67 380.636,957.003 356,989.5C 335.575,1028.88 341.742,1063.55 374.5,1093.5C 372.833,1095.5 371.167,1097.5 369.5,1099.5C 362.161,1092.33 355.328,1084.66 349,1076.5C 333.196,1050.04 331.529,1022.71 344,994.5C 366.54,955.646 400.374,938.646 445.5,943.5C 445.263,944.791 445.596,945.791 446.5,946.5 Z"/></g>
<g><path style="opacity:0.996" fill="white" d="M 453.5,952.5 C 471.273,966.607 489.607,979.94 508.5,992.5C 526.635,1034.46 517.635,1069.3 481.5,1097C 469.633,1104.79 456.633,1109.29 442.5,1110.5C 435.53,1108.4 428.864,1105.74 422.5,1102.5C 459.572,1104.56 486.405,1089.23 503,1056.5C 513.611,1024 505.778,996.836 479.5,975C 449.991,955.897 419.658,954.563 388.5,971C 355.574,993.855 346.408,1024.02 361,1061.5C 367.064,1073.56 375.897,1083.06 387.5,1090C 388.252,1090.67 388.586,1091.5 388.5,1092.5C 383.902,1091.73 379.235,1092.07 374.5,1093.5C 341.742,1063.55 335.575,1028.88 356,989.5C 380.636,957.003 413.136,944.67 453.5,952.5 Z"/></g>
<g><path style="opacity:0.999" fill="white" d="M 422.5,1102.5 C 411.355,1098.56 400.022,1095.23 388.5,1092.5C 388.586,1091.5 388.252,1090.67 387.5,1090C 375.897,1083.06 367.064,1073.56 361,1061.5C 346.408,1024.02 355.574,993.855 388.5,971C 419.658,954.563 449.991,955.897 479.5,975C 505.778,996.836 513.611,1024 503,1056.5C 486.405,1089.23 459.572,1104.56 422.5,1102.5 Z"/></g>
<g><path style="opacity:1" fill="white" d="M 427.5,963.5 C 457.68,963.332 480.514,975.999 496,1001.5C 510.738,1039.62 500.572,1069.12 465.5,1090C 430.935,1104.69 400.435,1098.85 374,1072.5C 353.333,1044.83 353.333,1017.17 374,989.5C 388.431,973.7 406.264,965.034 427.5,963.5 Z"/></g>
<g><path style="opacity:1" fill="white" d="M 423.5,971.5 C 449.691,970.017 470.525,979.684 486,1000.5C 502.237,1033.34 495.404,1060.17 465.5,1081C 437.634,1095.37 411.301,1093.04 386.5,1074C 366.528,1054.27 362.028,1031.43 373,1005.5C 384.329,986.007 401.162,974.674 423.5,971.5 Z"/></g>
<g><path style="opacity:1" fill="white" d="M 422.5,982.5 C 444.106,980.414 461.606,987.747 475,1004.5C 486.961,1024.19 485.961,1043.19 472,1061.5C 451.38,1081.19 428.213,1084.69 402.5,1072C 383.363,1059.55 375.863,1042.05 380,1019.5C 386.929,998.731 401.095,986.398 422.5,982.5 Z"/></g>
<g><path style="opacity:0.996" fill="white" d="M 508.5,992.5 C 513.045,995.266 517.378,998.266 521.5,1001.5C 533.696,1052.27 516.363,1089.11 469.5,1112C 465.101,1113.41 460.768,1114.91 456.5,1116.5C 451.51,1115.07 446.844,1113.07 442.5,1110.5C 456.633,1109.29 469.633,1104.79 481.5,1097C 517.635,1069.3 526.635,1034.46 508.5,992.5 Z"/></g>
<g><path style="opacity:1" fill="white" d="fffff5,993.5 C 439.054,991.293 452.887,996.293 464,1008.5C 475.76,1027.44 473.594,1044.6 457.5,1060C 439.833,1071.33 422.167,1071.33 404.5,1060C 388.797,1045.14 386.297,1028.31 397,1009.5C 403.941,1001.46 412.441,996.125 422.5,993.5 Z"/></g>
<g><path style="opacity:0.995" fill="white" d="M 521.5,1001.5 C 525.881,1003.68 529.881,1006.35 533.5,1009.5C 541.065,1054.86 525.398,1089.7 486.5,1114C 480.812,1117.35 474.812,1119.85 468.5,1121.5C 464.203,1120.35 460.203,1118.68 456.5,1116.5C 460.768,1114.91 465.101,1113.41 469.5,1112C 516.363,1089.11 533.696,1052.27 521.5,1001.5 Z"/></g>
<g><path style="opacity:1" fill="white" d="M 429.5,1009.5 C 450.145,1012.14 456.978,1023.14 450,1042.5C 440.601,1052.28 429.768,1054.11 417.5,1048C 405.5,1036.67 405.5,1025.33 417.5,1014C 421.301,1011.58 425.301,1010.08 429.5,1009.5 Z"/></g>
<g><path style="opacity:0.996" fill="white" d="M 533.5,1009.5 C 541.18,1013.67 548.513,1018.34 555.5,1023.5C 556.769,1059.88 544.103,1090.38 517.5,1115C 509.61,1121.1 501.61,1126.93 493.5,1132.5C 484.985,1129.07 476.652,1125.41 468.5,1121.5C 474.812,1119.85 480.812,1117.35 486.5,1114C 525.398,1089.7 541.065,1054.86 533.5,1009.5 Z"/></g>
<g><path style="opacity:0.988" fill="white" d="M 770.5,1078.5 C 771.921,1065.54 772.921,1052.54 773.5,1039.5C 773.499,1035.32 773.166,1031.32 772.5,1027.5C 784.488,1021.41 797.155,1019.91 810.5,1023C 815.223,1024.2 819.557,1026.2 823.5,1029C 805.06,1044.6 787.393,1061.1 770.5,1078.5 Z"/></g>
<g><path style="opacity:0.998" fill="white" d="M 555.5,1023.5 C 567.483,1030.47 579.483,1037.47 591.5,1044.5C 584.98,1086.38 564.98,1120.22 531.5,1146C 530.552,1146.48 529.552,1146.65 528.5,1146.5C 516.716,1142.11 505.05,1137.44 493.5,1132.5C 501.61,1126.93 509.61,1121.1 517.5,1115C 544.103,1090.38 556.769,1059.88 555.5,1023.5 Z"/></g>
<g><path style="opacity:0.997" fill="white" d="M 591.5,1044.5 C 601.37,1050.26 611.037,1056.26 620.5,1062.5C 612.159,1101.19 593.493,1133.86 564.5,1160.5C 552.2,1156.4 540.2,1151.74 528.5,1146.5C 529.552,1146.65 530.552,1146.48 531.5,1146C 564.98,1120.22 584.98,1086.38 591.5,1044.5 Z"/></g>
<g><path style="opacity:0.997" fill="white" d="M 620.5,1062.5 C 626.165,1065 631.498,1068 636.5,1071.5C 627.825,1108.86 609.825,1140.86 582.5,1167.5C 576.121,1165.93 570.121,1163.6 564.5,1160.5C 593.493,1133.86 612.159,1101.19 620.5,1062.5 Z"/></g>
<g><path style="opacity:0.996" fill="white" d="M 738.5,1050.5 C 730.197,1130.46 695.197,1195.79 633.5,1246.5C 631.408,1233.36 629.742,1220.03 628.5,1206.5C 664.313,1172.09 687.813,1130.42 699,1081.5C 699.78,1079.61 699.613,1077.95 698.5,1076.5C 712.619,1069.05 725.953,1060.38 738.5,1050.5 Z"/></g>
<g><path style="opacity:0.996" fill="white" d="M 698.5,1076.5 C 699.613,1077.95 699.78,1079.61 699,1081.5C 687.813,1130.42 664.313,1172.09 628.5,1206.5C 627.289,1199.2 626.123,1191.86 625,1184.5C 621.372,1182.91 617.872,1181.25 614.5,1179.5C 615.552,1179.65 616.552,1179.48 617.5,1179C 643.062,1151.38 660.395,1119.22 669.5,1082.5C 668.209,1082.74 667.209,1082.4 666.5,1081.5C 677.547,1082.16 688.214,1080.49 698.5,1076.5 Z"/></g>
<g><path style="opacity:0.997" fill="white" d="M 636.5,1071.5 C 645.885,1076.63 655.885,1079.96 666.5,1081.5C 667.209,1082.4 668.209,1082.74 669.5,1082.5C 660.395,1119.22 643.062,1151.38 617.5,1179C 616.552,1179.48 615.552,1179.65 614.5,1179.5C 603.537,1176.07 592.871,1172.07 582.5,1167.5C 609.825,1140.86 627.825,1108.86 636.5,1071.5 Z"/></g>
<g><path style="opacity:0.993" fill="white" d="M 1305.5,1121.5 C 1289.11,1140.23 1271.44,1157.56 1252.5,1173.5C 1244.76,1168.21 1237.26,1162.54 1230,1156.5C 1231.15,1150.23 1231.48,1143.9 1231,1137.5C 1237.27,1132.12 1244.44,1128.45 1252.5,1126.5C 1255.17,1127.12 1257.67,1128.12 1260,1129.5C 1261.19,1119.07 1262.53,1108.74 1264,1098.5C 1270.05,1099.71 1272.88,1103.38 1272.5,1109.5C 1274.53,1109.34 1276.53,1109.5 1278.5,1110C 1286.57,1115.86 1295.57,1119.7 1305.5,1121.5 Z"/></g>
<g><path style="opacity:0.995" fill="white" d="M 772.5,1027.5 C 773.166,1031.32 773.499,1035.32 773.5,1039.5C 772.921,1052.54 771.921,1065.54 770.5,1078.5C 753.937,1094.89 739.437,1112.89 727,1132.5C 726.333,1133.5 726.333,1134.5 727,1135.5C 732.037,1140.37 736.87,1145.37 741.5,1150.5C 732.282,1170.61 721.282,1189.61 708.5,1207.5C 702.051,1206.3 695.717,1204.64 689.5,1202.5C 687.721,1213.07 686.721,1223.74 686.5,1234.5C 673.935,1247.57 660.602,1259.73 646.5,1271C 643.778,1273.36 640.778,1275.19 637.5,1276.5C 635.345,1266.74 634.012,1256.74 633.5,1246.5C 695.197,1195.79 730.197,1130.46 738.5,1050.5C 748.735,1041.28 760.068,1033.61 772.5,1027.5 Z"/></g>
<g><path style="opacity:0.997" fill="white" d="M 236.5,1107.5 C 262.257,1159.56 302.591,1195.23 357.5,1214.5C 356.687,1222.82 356.02,1231.15 355.5,1239.5C 354.698,1240.95 354.198,1242.62 354,1244.5C 312.504,1231.26 276.837,1208.93 247,1177.5C 246.617,1178.06 246.117,1178.39 245.5,1178.5C 242.746,1154.8 239.746,1131.14 236.5,1107.5 Z"/></g>
<g><path style="opacity:0.994" fill="white" d="M 741.5,1150.5 C 747.214,1155.55 753.214,1160.22 759.5,1164.5C 752.229,1181.04 743.396,1196.71 733,1211.5C 732.517,1212.45 732.351,1213.45 732.5,1214.5C 724.288,1212.54 716.288,1210.2 708.5,1207.5C 721.282,1189.61 732.282,1170.61 741.5,1150.5 Z"/></g>
<g><path style="opacity:0.992" fill="white" d="M 759.5,1164.5 C 767.65,1170.3 776.317,1175.3 785.5,1179.5C 785.414,1180.5 785.748,1181.33 786.5,1182C 778.867,1196.11 770.867,1209.94 762.5,1223.5C 752.5,1220.5 742.5,1217.5 732.5,1214.5C 732.351,1213.45 732.517,1212.45 733,1211.5C 743.396,1196.71 752.229,1181.04 759.5,1164.5 Z"/></g>
<g><path style="opacity:0.996" fill="white" d="M 355.5,1239.5 C 354.965,1251.66 354.298,1263.66 353.5,1275.5C 316.312,1264.07 282.312,1246.57 251.5,1223C 250.915,1221.7 250.249,1220.53 249.5,1219.5C 248.365,1205.81 247.031,1192.15 245.5,1178.5C 246.117,1178.39 246.617,1178.06 247,1177.5C 276.837,1208.93 312.504,1231.26 354,1244.5C 354.198,1242.62 354.698,1240.95 355.5,1239.5 Z"/></g>
<g><path style="opacity:0.994" fill="white" d="M 785.5,1179.5 C 800.46,1185.89 813.626,1194.89 825,1206.5C 834.507,1218.61 841.007,1231.94 844.5,1246.5C 817.242,1238.52 789.909,1230.85 762.5,1223.5C 770.867,1209.94 778.867,1196.11 786.5,1182C 785.748,1181.33 785.414,1180.5 785.5,1179.5 Z"/></g>
<g><path style="opacity:0.993" fill="white" d="M 249.5,1219.5 C 250.249,1220.53 250.915,1221.7 251.5,1223C 282.312,1246.57 316.312,1264.07 353.5,1275.5C 353.176,1288.08 351.842,1300.41 349.5,1312.5C 349.5,1310.5 349.5,1308.5 349.5,1306.5C 316.274,1298.48 285.274,1285.32 256.5,1267C 255.364,1265.85 254.364,1264.69 253.5,1263.5C 252.277,1248.82 250.943,1234.15 249.5,1219.5 Z"/></g>
<g><path style="opacity:0.987" fill="white" d="M 897.5,1243.5 C 889.273,1251.69 885.94,1261.69 887.5,1273.5C 881.549,1270.72 877.049,1266.38 874,1260.5C 873.226,1253.41 872.059,1246.41 870.5,1239.5C 879.812,1238.55 888.812,1239.88 897.5,1243.5 Z"/></g>
<g><path style="opacity:0.99" fill="white" d="M 686.5,1234.5 C 685.762,1258.02 683.262,1281.36 679,1304.5C 676.219,1318.85 670.719,1332.02 662.5,1344C 661.365,1344.75 660.365,1344.58 659.5,1343.5C 649.421,1328.32 642.921,1311.66 640,1293.5C 638.731,1287.89 637.898,1282.22 637.5,1276.5C 640.778,1275.19 643.778,1273.36 646.5,1271C 660.602,1259.73 673.935,1247.57 686.5,1234.5 Z"/></g>
<g><path style="opacity:0.979" fill="white" d="M 897.5,1243.5 C 905.391,1245.8 913.058,1248.46 920.5,1251.5C 919.504,1251.41 918.671,1251.75 918,1252.5C 911.653,1264.79 912.153,1276.79 919.5,1288.5C 908.588,1284.04 897.921,1279.04 887.5,1273.5C 885.94,1261.69 889.273,1251.69 897.5,1243.5 Z"/></g>
<g><path style="opacity:0.988" fill="white" d="M 920.5,1251.5 C 928.91,1254.3 937.243,1257.3 945.5,1260.5C 944.791,1261.4 943.791,1261.74 942.5,1261.5C 940.318,1270.65 941.485,1279.32 946,1287.5C 948.333,1290.5 950.667,1293.5 953,1296.5C 958.074,1300.75 962.907,1305.08 967.5,1309.5C 951.5,1302.5 935.5,1295.5 919.5,1288.5C 912.153,1276.79 911.653,1264.79 918,1252.5C 918.671,1251.75 919.504,1251.41 920.5,1251.5 Z"/></g>
<g><path style="opacity:0.988" fill="white" d="M 945.5,1260.5 C 952.012,1262.93 958.345,1265.59 964.5,1268.5C 962.05,1268.87 961.05,1270.37 961.5,1273C 962.448,1281.73 965.948,1289.23 972,1295.5C 984.875,1307.36 999.375,1316.86 1015.5,1324C 1067.49,1345.16 1121.49,1358.16 1177.5,1363C 1213.3,1366.79 1248.96,1367.29 1284.5,1364.5C 1307.25,1366.23 1329.91,1365.57 1352.5,1362.5C 1352.57,1364.03 1351.91,1365.03 1350.5,1365.5C 1303.12,1373.28 1255.45,1375.45 1207.5,1372C 1161.23,1369.07 1115.57,1362.23 1070.5,1351.5C 1035.85,1338.28 1001.51,1324.28 967.5,1309.5C 962.907,1305.08 958.074,1300.75 953,1296.5C 950.667,1293.5 948.333,1290.5 946,1287.5C 941.485,1279.32 940.318,1270.65 942.5,1261.5C 943.791,1261.74 944.791,1261.4 945.5,1260.5 Z"/></g>
<g><path style="opacity:0.998" fill="white" d="M 1825.5,1399.5 C 1825.5,1412.5 1825.5,1425.5 1825.5,1438.5C 1816.53,1493.65 1786.53,1532.82 1735.5,1556C 1679.43,1575.85 1627.43,1568.18 1579.5,1533C 1531.27,1492.32 1513.1,1440.82 1525,1378.5C 1539.01,1327.48 1570.85,1292.65 1620.5,1274C 1677.09,1257.23 1728.09,1267.57 1773.5,1305C 1801.38,1330.71 1818.71,1362.21 1825.5,1399.5 Z"/></g>
<g><path style="opacity:0.994" fill="white" d="M 964.5,1268.5 C 973.228,1271.07 981.561,1274.4 989.5,1278.5C 988.624,1278.37 987.957,1278.7 987.5,1279.5C 992.058,1291.23 999.725,1300.4 1010.5,1307C 1042.64,1325.38 1076.97,1338.05 1113.5,1345C 1153.58,1353.47 1193.92,1357.64 1234.5,1357.5C 1251.09,1360.39 1267.76,1362.73 1284.5,1364.5C 1248.96,1367.29 1213.3,1366.79 1177.5,1363C 1121.49,1358.16 1067.49,1345.16 1015.5,1324C 999.375,1316.86 984.875,1307.36 972,1295.5C 965.948,1289.23 962.448,1281.73 961.5,1273C 961.05,1270.37 962.05,1268.87 964.5,1268.5 Z"/></g>
<g><path style="opacity:0.994" fill="white" d="M 989.5,1278.5 C 1003.57,1283.63 1017.57,1288.97 1031.5,1294.5C 1031.86,1296.37 1032.86,1297.87 1034.5,1299C 1048.42,1309.55 1063.75,1317.55 1080.5,1323C 1109.27,1332.99 1138.61,1339.15 1168.5,1341.5C 1190.37,1347.47 1212.37,1352.8 1234.5,1357.5C 1193.92,1357.64 1153.58,1353.47 1113.5,1345C 1076.97,1338.05 1042.64,1325.38 1010.5,1307C 999.725,1300.4 992.058,1291.23 987.5,1279.5C 987.957,1278.7 988.624,1278.37 989.5,1278.5 Z"/></g>
<g><path style="opacity:0.995" fill="white" d="M 253.5,1263.5 C 254.364,1264.69 255.364,1265.85 256.5,1267C 285.274,1285.32 316.274,1298.48 349.5,1306.5C 349.5,1308.5 349.5,1310.5 349.5,1312.5C 349.054,1319.29 348.054,1325.95 346.5,1332.5C 315.294,1325.6 285.794,1314.26 258,1298.5C 257.722,1299.42 257.222,1300.08 256.5,1300.5C 255.247,1288.21 254.247,1275.88 253.5,1263.5 Z"/></g>
<g><path style="opacity:0.984" fill="white" d="M 1031.5,1294.5 C 1076.54,1311.96 1122.21,1327.63 1168.5,1341.5C 1138.61,1339.15 1109.27,1332.99 1080.5,1323C 1063.75,1317.55 1048.42,1309.55 1034.5,1299C 1032.86,1297.87 1031.86,1296.37 1031.5,1294.5 Z"/></g>
<g><path style="opacity:0.996" fill="white" d="M 346.5,1332.5 C 345.674,1339.63 344.341,1346.63 342.5,1353.5C 313.754,1347.69 286.088,1338.03 259.5,1324.5C 258.818,1325.24 258.151,1325.91 257.5,1326.5C 257.167,1317.83 256.833,1309.17 256.5,1300.5C 257.222,1300.08 257.722,1299.42 258,1298.5C 285.794,1314.26 315.294,1325.6 346.5,1332.5 Z"/></g>
<g><path style="opacity:0.994" fill="white" d="M 342.5,1353.5 C 341.83,1364.53 340.83,1375.53 339.5,1386.5C 312.601,1380.98 286.601,1372.64 261.5,1361.5C 260.83,1359.71 260.163,1358.04 259.5,1356.5C 259.106,1346.47 258.439,1336.47 257.5,1326.5C 258.151,1325.91 258.818,1325.24 259.5,1324.5C 286.088,1338.03 313.754,1347.69 342.5,1353.5 Z"/></g>
<g><path style="opacity:0.995" fill="white" d="M 1070.5,1351.5 C 1115.57,1362.23 1161.23,1369.07 1207.5,1372C 1255.45,1375.45 1303.12,1373.28 1350.5,1365.5C 1348.98,1368.53 1346.98,1371.2 1344.5,1373.5C 1266.46,1382.54 1188.79,1379.87 1111.5,1365.5C 1110.58,1365.54 1109.92,1365.88 1109.5,1366.5C 1096.33,1361.74 1083.33,1356.74 1070.5,1351.5 Z"/></g>
<g><path style="opacity:0.995" fill="white" d="M 1109.5,1366.5 C 1109.92,1365.88 1110.58,1365.54 1111.5,1365.5C 1188.79,1379.87 1266.46,1382.54 1344.5,1373.5C 1342.67,1377.15 1340.34,1380.49 1337.5,1383.5C 1275.02,1389.61 1212.69,1388.28 1150.5,1379.5C 1136.64,1375.77 1122.97,1371.44 1109.5,1366.5 Z"/></g>
<g><path style="opacity:0.994" fill="white" d="M 259.5,1356.5 C 260.163,1358.04 260.83,1359.71 261.5,1361.5C 286.601,1372.64 312.601,1380.98 339.5,1386.5C 337.859,1406.91 335.693,1427.24 333,1447.5C 321.527,1443.68 310.027,1439.84 298.5,1436C 292.617,1429.12 287.117,1421.95 282,1414.5C 275.253,1402 268.253,1389.67 261,1377.5C 260.423,1370.5 259.923,1363.5 259.5,1356.5 Z"/></g>
<g><path style="opacity:0.991" fill="white" d="M 1150.5,1379.5 C 1212.69,1388.28 1275.02,1389.61 1337.5,1383.5C 1332.5,1389.34 1327.67,1395.34 1323,1401.5C 1321.55,1403.46 1319.72,1404.8 1317.5,1405.5C 1260.22,1406.45 1204.56,1397.79 1150.5,1379.5 Z"/></g>
<g><path style="opacity:0.939" fill="white" d="M 780.5,1457.5 C 785.833,1457.5 791.167,1457.5 796.5,1457.5C 796.5,1506.5 796.5,1555.5 796.5,1604.5C 791.167,1604.5 785.833,1604.5 780.5,1604.5C 780.5,1555.5 780.5,1506.5 780.5,1457.5 Z"/></g>
<g><path style="opacity:0.99" fill="white" d="M 1150.5,1487.5 C 1148.8,1487.66 1147.13,1487.49 1145.5,1487C 1135.77,1481.3 1125.44,1476.97 1114.5,1474C 1112.57,1473.58 1111.57,1472.41 1111.5,1470.5C 1132.73,1460.07 1153.07,1461.74 1172.5,1475.5C 1165.39,1479.96 1158.05,1483.96 1150.5,1487.5 Z"/></g>
<g><path style="opacity:0.918" fill="white" d="M 95.5,1465.5 C 101.758,1465.19 107.924,1465.52 114,1466.5C 126.875,1500.96 140.042,1535.29 153.5,1569.5C 166.958,1535.29 180.125,1500.96 193,1466.5C 199.076,1465.52 205.242,1465.19 211.5,1465.5C 192.957,1514.13 173.623,1562.46 153.5,1610.5C 133.313,1562.47 113.979,1514.13 95.5,1465.5 Z"/></g>
<g><path style="opacity:0.903" fill="white" d="M 228.5,1465.5 C 242.121,1465.62 246.288,1471.95 241,1484.5C 236.833,1487.8 232.333,1488.64 227.5,1487C 225,1485.83 223.167,1484 222,1481.5C 219.724,1474.13 221.891,1468.79 228.5,1465.5 Z"/></g>
<g><path style="opacity:0.894" fill="white" d="M 353.5,1465.5 C 367.098,1465.6 371.265,1471.93 366,1484.5C 359.245,1489.75 352.911,1489.08 347,1482.5C 344.367,1474.89 346.534,1469.22 353.5,1465.5 Z"/></g>
<g><path style="opacity:0.941" fill="white" d="M 683.5,1465.5 C 707.836,1465.33 732.169,1465.5 756.5,1466C 757.471,1471.07 757.805,1476.24 757.5,1481.5C 738.5,1481.5 719.5,1481.5 700.5,1481.5C 700.5,1494.5 700.5,1507.5 700.5,1520.5C 719.5,1520.5 738.5,1520.5 757.5,1520.5C 757.5,1525.83 757.5,1531.17 757.5,1536.5C 738.5,1536.5 719.5,1536.5 700.5,1536.5C 700.5,1559.17 700.5,1581.83 700.5,1604.5C 694.833,1604.5 689.167,1604.5 683.5,1604.5C 683.5,1558.17 683.5,1511.83 683.5,1465.5 Z"/></g>
<g><path style="opacity:0.978" fill="white" d="M 1111.5,1470.5 C 1111.57,1472.41 1112.57,1473.58 1114.5,1474C 1125.44,1476.97 1135.77,1481.3 1145.5,1487C 1147.13,1487.49 1148.8,1487.66 1150.5,1487.5C 1144.16,1491.67 1137.5,1495.34 1130.5,1498.5C 1128.66,1495.83 1126.33,1493.67 1123.5,1492C 1114.07,1487.25 1104.4,1483.42 1094.5,1480.5C 1100,1476.91 1105.67,1473.58 1111.5,1470.5 Z"/></g>
<g><path style="opacity:0.988" fill="white" d="M 1094.5,1480.5 C 1104.4,1483.42 1114.07,1487.25 1123.5,1492C 1126.33,1493.67 1128.66,1495.83 1130.5,1498.5C 1124.65,1502.59 1118.32,1505.93 1111.5,1508.5C 1110.59,1503.74 1107.92,1500.24 1103.5,1498C 1096.09,1493.93 1088.42,1490.76 1080.5,1488.5C 1085.17,1485.83 1089.83,1483.17 1094.5,1480.5 Z"/></g>
<g><path style="opacity:0.966" fill="white" d="M 1080.5,1488.5 C 1088.42,1490.76 1096.09,1493.93 1103.5,1498C 1107.92,1500.24 1110.59,1503.74 1111.5,1508.5C 1103.65,1513.59 1095.31,1517.93 1086.5,1521.5C 1089.51,1518.99 1091.51,1515.82 1092.5,1512C 1090.21,1505.71 1085.87,1501.37 1079.5,1499C 1075.04,1497.03 1070.37,1496.19 1065.5,1496.5C 1070.31,1493.59 1075.31,1490.93 1080.5,1488.5 Z"/></g>
<g><path style="opacity:0.997" fill="white" d="M 1065.5,1496.5 C 1070.37,1496.19 1075.04,1497.03 1079.5,1499C 1085.87,1501.37 1090.21,1505.71 1092.5,1512C 1091.51,1515.82 1089.51,1518.99 1086.5,1521.5C 1083.48,1523.67 1080.15,1525.34 1076.5,1526.5C 1053,1533.48 1029.67,1532.98 1006.5,1525C 1003.04,1523.95 1000.37,1521.95 998.5,1519C 999.416,1518.72 1000.08,1518.22 1000.5,1517.5C 1004.11,1516.35 1007.77,1515.35 1011.5,1514.5C 1012.05,1516.39 1013.05,1518.06 1014.5,1519.5C 1018.66,1521.5 1022.99,1523 1027.5,1524C 1038.89,1524.91 1050.23,1524.58 1061.5,1523C 1065.56,1521.46 1069.56,1519.79 1073.5,1518C 1078.86,1513.37 1078.53,1509.03 1072.5,1505C 1067.52,1502.17 1062.19,1500.67 1056.5,1500.5C 1059.26,1498.8 1062.26,1497.46 1065.5,1496.5 Z"/></g>
<g><path style="opacity:1" fill="white" d="M 1036.5,1507.5 C 1042.23,1507.21 1047.9,1507.55 1053.5,1508.5C 1056.26,1511.39 1055.93,1513.89 1052.5,1516C 1045.83,1518 1039.17,1518 1032.5,1516C 1028.86,1514.9 1027.86,1512.73 1029.5,1509.5C 1031.7,1508.43 1034.03,1507.77 1036.5,1507.5 Z"/></g>
<g><path style="opacity:0.914" fill="white" d="M 289.5,1514.5 C 300.436,1513.49 310.436,1515.99 319.5,1522C 322.444,1524.72 324.777,1527.89 326.5,1531.5C 323.298,1535.02 319.465,1537.69 315,1539.5C 312.233,1536.73 309.4,1533.9 306.5,1531C 299.117,1526.54 291.783,1526.54 284.5,1531C 279.257,1536.41 279.257,1541.74 284.5,1547C 295.384,1551.85 306.384,1556.52 317.5,1561C 328.591,1571.25 330.424,1583.08 323,1596.5C 313.127,1607.22 300.96,1611.05 286.5,1608C 275.246,1606.23 266.912,1600.4 261.5,1590.5C 265.205,1586.89 269.371,1583.89 274,1581.5C 281.906,1594.02 292.74,1597.52 306.5,1592C 312.715,1586.29 313.048,1580.29 307.5,1574C 301.445,1570.76 295.112,1568.09 288.5,1566C 279.932,1562.65 272.765,1557.48 267,1550.5C 262.133,1538.13 264.966,1527.96 275.5,1520C 280.017,1517.45 284.684,1515.61 289.5,1514.5 Z"/></g>
<g><path style="opacity:0.926" fill="white" d="M 429.5,1514.5 C 456.94,1513.62 474.44,1526.29 482,1552.5C 484.855,1581.97 472.022,1600.47 443.5,1608C 414.404,1610.54 396.238,1597.71 389,1569.5C 386.945,1539.58 400.445,1521.25 429.5,1514.5 Z M 430.5,1529.5 C 452.427,1529.26 464.427,1540.09 466.5,1562C 463.824,1584.02 451.491,1594.35 429.5,1593C 418.603,1590.44 411.103,1583.94 407,1573.5C 401.501,1551.49 409.335,1536.82 430.5,1529.5 Z"/></g>
<g><path style="opacity:0.92" fill="white" d="M 544.5,1514.5 C 554.921,1513.55 564.588,1515.72 573.5,1521C 578.772,1525.28 581.939,1530.78 583,1537.5C 583.5,1559.83 583.667,1582.16 583.5,1604.5C 578.167,1604.5 572.833,1604.5 567.5,1604.5C 567.954,1583.45 567.454,1562.45 566,1541.5C 560.679,1530.27 551.845,1526.1 539.5,1529C 531.022,1530.65 525.189,1535.49 522,1543.5C 520.548,1563.78 520.048,1584.11 520.5,1604.5C 515.167,1604.5 509.833,1604.5 504.5,1604.5C 504.5,1575.5 504.5,1546.5 504.5,1517.5C 509.833,1517.5 515.167,1517.5 520.5,1517.5C 520.335,1521.18 520.501,1524.85 521,1528.5C 527.034,1520.6 534.867,1515.93 544.5,1514.5 Z"/></g>
<g><path style="opacity:0.924" fill="white" d="M 224.5,1517.5 C 229.833,1517.5 235.167,1517.5 240.5,1517.5C 240.5,1546.5 240.5,1575.5 240.5,1604.5C 235.167,1604.5 229.833,1604.5 224.5,1604.5C 224.5,1575.5 224.5,1546.5 224.5,1517.5 Z"/></g>
<g><path style="opacity:0.923" fill="white" d="M 349.5,1517.5 C 354.833,1517.5 360.167,1517.5 365.5,1517.5C 365.5,1546.5 365.5,1575.5 365.5,1604.5C 360.167,1604.5 354.833,1604.5 349.5,1604.5C 349.5,1575.5 349.5,1546.5 349.5,1517.5 Z"/></g>
<g><path style="opacity:0.917" fill="white" d="M 840.5,1646.5 C 834.5,1646.5 828.5,1646.5 822.5,1646.5C 830.289,1629.75 837.956,1612.92 845.5,1596C 834.198,1569.92 823.198,1543.75 812.5,1517.5C 818.537,1517.17 824.537,1517.5 830.5,1518.5C 838.569,1538.54 846.736,1558.54 855,1578.5C 863.403,1558.46 871.903,1538.46 880.5,1518.5C 886.128,1517.5 891.794,1517.17 897.5,1517.5C 878.778,1560.61 859.778,1603.61 840.5,1646.5 Z"/></g>
<g><path style="opacity:1" fill="white" d="M 1056.5,1500.5 C 1062.19,1500.67 1067.52,1502.17 1072.5,1505C 1078.53,1509.03 1078.86,1513.37 1073.5,1518C 1069.56,1519.79 1065.56,1521.46 1061.5,1523C 1050.23,1524.58 1038.89,1524.91 1027.5,1524C 1022.99,1523 1018.66,1521.5 1014.5,1519.5C 1013.05,1518.06 1012.05,1516.39 1011.5,1514.5C 1014.17,1513.83 1016.83,1513.17 1019.5,1512.5C 1020.39,1514.74 1021.72,1516.74 1023.5,1518.5C 1034.16,1522.32 1045.16,1523.49 1056.5,1522C 1060.86,1520.3 1064.86,1517.97 1068.5,1515C 1069.58,1513.27 1069.74,1511.44 1069,1509.5C 1063.86,1505.51 1058.02,1503.17 1051.5,1502.5C 1052.78,1501.07 1054.45,1500.4 1056.5,1500.5 Z"/></g>
<g><path style="opacity:1" fill="white" d="M 1046.5,1503.5 C 1049.89,1505.18 1053.56,1506.34 1057.5,1507C 1064.17,1510.33 1064.17,1513.67 1057.5,1517C 1046.69,1520.57 1036.03,1520.24 1025.5,1516C 1023.96,1514.89 1023.3,1513.39 1023.5,1511.5C 1025.42,1510.64 1027.42,1509.97 1029.5,1509.5C 1027.86,1512.73 1028.86,1514.9 1032.5,1516C 1039.17,1518 1045.83,1518 1052.5,1516C 1055.93,1513.89 1056.26,1511.39 1053.5,1508.5C 1047.9,1507.55 1042.23,1507.21 1036.5,1507.5C 1039.68,1505.99 1043.02,1504.66 1046.5,1503.5 Z"/></g>
<g><path style="opacity:0.993" fill="white" d="M 1000.5,1517.5 C 1000.08,1518.22 999.416,1518.72 998.5,1519C 1000.37,1521.95 1003.04,1523.95 1006.5,1525C 1029.67,1532.98 1053,1533.48 1076.5,1526.5C 1068.81,1530.68 1060.81,1534.34 1052.5,1537.5C 1033.98,1538.96 1015.81,1536.96 998,1531.5C 992.743,1528.46 987.576,1525.29 982.5,1522C 983.056,1521.62 983.389,1521.12 983.5,1520.5C 989.192,1519.63 994.859,1518.63 1000.5,1517.5 Z"/></g>
<g><path style="opacity:1" fill="white" d="M 1051.5,1502.5 C 1058.02,1503.17 1063.86,1505.51 1069,1509.5C 1069.74,1511.44 1069.58,1513.27 1068.5,1515C 1064.86,1517.97 1060.86,1520.3 1056.5,1522C 1045.16,1523.49 1034.16,1522.32 1023.5,1518.5C 1021.72,1516.74 1020.39,1514.74 1019.5,1512.5C 1020.71,1511.77 1022.04,1511.43 1023.5,1511.5C 1023.3,1513.39 1023.96,1514.89 1025.5,1516C 1036.03,1520.24 1046.69,1520.57 1057.5,1517C 1064.17,1513.67 1064.17,1510.33 1057.5,1507C 1053.56,1506.34 1049.89,1505.18 1046.5,1503.5C 1048.12,1502.96 1049.78,1502.63 1051.5,1502.5 Z"/></g>
<g><path style="opacity:0.985" fill="white" d="M 983.5,1520.5 C 983.389,1521.12 983.056,1521.62 982.5,1522C 987.576,1525.29 992.743,1528.46 998,1531.5C 1015.81,1536.96 1033.98,1538.96 1052.5,1537.5C 1047.15,1540.4 1041.49,1542.73 1035.5,1544.5C 1011.32,1544.95 988.65,1539.45 967.5,1528C 965.35,1526.81 964.683,1525.31 965.5,1523.5C 971.572,1522.87 977.572,1521.87 983.5,1520.5 Z"/></g>
<g><path style="opacity:0.997" fill="white" d="M 965.5,1523.5 C 964.683,1525.31 965.35,1526.81 967.5,1528C 988.65,1539.45 1011.32,1544.95 1035.5,1544.5C 1029.2,1547.6 1022.53,1549.94 1015.5,1551.5C 993.225,1550.18 972.225,1544.35 952.5,1534C 948.92,1531.72 945.586,1529.22 942.5,1526.5C 950.181,1525.58 957.848,1524.58 965.5,1523.5 Z"/></g>
<g><path style="opacity:0.993" fill="white" d="M 925.5,1531.5 C 941.915,1543.48 960.249,1551.32 980.5,1555C 985.792,1556.16 991.125,1556.99 996.5,1557.5C 968.047,1566.2 939.047,1568.7 909.5,1565C 911.325,1563.53 911.825,1561.7 911,1559.5C 909.702,1558.44 908.535,1557.27 907.5,1556C 909.154,1551.05 910.488,1546.05 911.5,1541C 910.944,1538.76 909.944,1536.76 908.5,1535C 914.129,1533.62 919.796,1532.45 925.5,1531.5 Z"/></g>
<g><path style="opacity:1" fill="white" d="M 942.5,1526.5 C 945.586,1529.22 948.92,1531.72 952.5,1534C 972.225,1544.35 993.225,1550.18 1015.5,1551.5C 1009.51,1554.27 1003.17,1556.27 996.5,1557.5C 991.125,1556.99 985.792,1556.16 980.5,1555C 960.249,1551.32 941.915,1543.48 925.5,1531.5C 930.894,1529.26 936.561,1527.59 942.5,1526.5 Z"/></g>
<g><path style="opacity:0.911" fill="white" d="M 609.5,1553.5 C 624.5,1553.5 639.5,1553.5 654.5,1553.5C 654.5,1558.83 654.5,1564.17 654.5,1569.5C 639.5,1569.5 624.5,1569.5 609.5,1569.5C 609.5,1564.17 609.5,1558.83 609.5,1553.5 Z"/></g>
</svg>
