<svg width="48" height="48" viewBox="0 0 48 48" fill="none" xmlns="http://www.w3.org/2000/svg">
<path d="M18 44H30C40 44 44 40 44 30V18C44 8 40 4 30 4H18C8 4 4 8 4 18V30C4 40 8 44 18 44Z" stroke="white" stroke-width="1.5" stroke-linecap="round" stroke-linejoin="round"/>
<path d="M24 31C24.9193 31 25.8295 30.8189 26.6788 30.4672C27.5281 30.1154 28.2997 29.5998 28.9497 28.9497C29.5998 28.2997 30.1154 27.5281 30.4672 26.6788C30.8189 25.8295 31 24.9193 31 24C31 23.0807 30.8189 22.1705 30.4672 21.3212C30.1154 20.4719 29.5998 19.7003 28.9497 19.0503C28.2997 18.4002 27.5281 17.8846 26.6788 17.5328C25.8295 17.1811 24.9193 17 24 17C22.1435 17 20.363 17.7375 19.0503 19.0503C17.7375 20.363 17 22.1435 17 24C17 25.8565 17.7375 27.637 19.0503 28.9497C20.363 30.2625 22.1435 31 24 31V31Z" stroke="white" stroke-width="1.5" stroke-linecap="round" stroke-linejoin="round"/>
<path d="M35.272 14H35.296" stroke="white" stroke-width="2" stroke-linecap="round" stroke-linejoin="round"/>
</svg>
